<svg width="132" height="36" xmlns="http://www.w3.org/2000/svg">
  <path d="M.313 35V.734h7.265V29h13.899v6H.312zM58.53 17.82c0 5.672-1.406 10.032-4.218 13.078-2.813 3.047-6.844 4.57-12.094 4.57-5.25 0-9.281-1.523-12.094-4.57-2.813-3.046-4.219-7.421-4.219-13.125 0-5.703 1.41-10.058 4.23-13.066C32.958 1.699 37 .195 42.267.195c5.265 0 9.293 1.516 12.082 4.547 2.789 3.031 4.183 7.39 4.183 13.078zm-25.008 0c0 3.828.727 6.711 2.18 8.649 1.453 1.937 3.625 2.906 6.516 2.906 5.797 0 8.695-3.852 8.695-11.555 0-7.718-2.883-11.578-8.648-11.578-2.891 0-5.07.973-6.54 2.918-1.468 1.945-2.203 4.832-2.203 8.66zm45.118-2.062h13.593v17.765c-2.203.72-4.277 1.223-6.222 1.512-1.946.29-3.934.434-5.965.434-5.172 0-9.121-1.52-11.848-4.559-2.726-3.039-4.09-7.402-4.09-13.09 0-5.531 1.582-9.843 4.746-12.937 3.165-3.094 7.551-4.64 13.16-4.64 3.516 0 6.907.702 10.172 2.109l-2.414 5.812c-2.5-1.25-5.101-1.875-7.804-1.875-3.14 0-5.656 1.055-7.547 3.164-1.89 2.11-2.836 4.945-2.836 8.508 0 3.719.762 6.559 2.285 8.52 1.524 1.96 3.738 2.94 6.645 2.94 1.515 0 3.054-.155 4.617-.468v-7.148H78.64v-6.047zm52.851 2.062c0 5.672-1.406 10.032-4.219 13.078-2.812 3.047-6.843 4.57-12.093 4.57s-9.282-1.523-12.094-4.57c-2.813-3.046-4.219-7.421-4.219-13.125 0-5.703 1.41-10.058 4.23-13.066 2.821-3.008 6.864-4.512 12.13-4.512 5.265 0 9.293 1.516 12.082 4.547 2.789 3.031 4.183 7.39 4.183 13.078zm-25.008 0c0 3.828.727 6.711 2.18 8.649 1.453 1.937 3.625 2.906 6.516 2.906 5.797 0 8.695-3.852 8.695-11.555 0-7.718-2.883-11.578-8.648-11.578-2.891 0-5.07.973-6.54 2.918-1.468 1.945-2.203 4.832-2.203 8.66z" fill="#212529" fill-rule="nonzero"/>
</svg>
