<svg width="200" height="102" xmlns="http://www.w3.org/2000/svg" xmlns:xlink="http://www.w3.org/1999/xlink">
  <defs>
    <path id="a" d="M0 .004h102.723v48.053H0z"/>
    <path id="c" d="M.16.071h6.46v6.652H.16z"/>
    <path id="e" d="M.169.04h87.767v15.253H.169z"/>
  </defs>
  <g fill="none" fill-rule="evenodd">
    <g transform="translate(0 28.414)">
      <mask id="b" fill="#fff">
        <use xlink:href="#a"/>
      </mask>
      <path d="M14.678.004C5.287.004 0 9.894 0 23.961c0 14.137 4.66 24.096 13.982 24.096 8.278 0 14.469-6.965 14.469-24.654C28.45 10.798 24.555.004 14.678.004zm-.348 6.477c5.008 0 6.4 8.775 6.4 17.27 0 9.402-1.531 17.829-6.33 17.829-4.73 0-6.679-7.312-6.679-17.55 0-9.82 1.948-17.55 6.609-17.55zM31.44 47.499h23.651v-6.476H40.276v-.21l14.886-34.89V.562H32.763v6.477h14.051v.14L31.441 43.111V47.5zm69.751-27.578h-11.13V7.038h11.826V.561H82.619V47.5h20.104v-6.476h-12.66V26.12h11.129V19.92z" fill="#3C3C3B" mask="url(#b)"/>
    </g>
    <path d="M68.809 39.022a5.677 5.677 0 005.671-5.683 5.677 5.677 0 00-5.671-5.683 5.677 5.677 0 00-5.671 5.683 5.677 5.677 0 005.67 5.683M68.809 74.255a5.677 5.677 0 005.671-5.683 5.677 5.677 0 00-5.671-5.683 5.677 5.677 0 00-5.671 5.683 5.677 5.677 0 005.67 5.683" fill="#3EA3DC"/>
    <path d="M68.431 90.166a5.299 5.299 0 005.293-5.304c0-2.929-2.37-5.303-5.293-5.303a5.299 5.299 0 00-5.293 5.303c0 2.93 2.37 5.304 5.293 5.304" fill="#86C2EB"/>
    <g transform="translate(65.406)">
      <mask id="d" fill="#fff">
        <use xlink:href="#c"/>
      </mask>
      <path d="M3.39 6.723c1.784 0 3.23-1.49 3.23-3.326C6.62 1.56 5.174.071 3.39.071 1.605.07.16 1.56.16 3.397c0 1.837 1.445 3.326 3.23 3.326" fill="#BCE4FA" mask="url(#d)"/>
    </g>
    <path d="M68.62 101.91a3.216 3.216 0 003.214-3.22c0-1.778-1.439-3.22-3.214-3.22a3.217 3.217 0 00-3.214 3.22 3.216 3.216 0 003.214 3.22" fill="#BCE4FA"/>
    <path d="M68.431 22.352a5.299 5.299 0 005.293-5.304c0-2.93-2.37-5.304-5.293-5.304a5.298 5.298 0 00-5.293 5.304c0 2.93 2.37 5.304 5.293 5.304" fill="#86C2EB"/>
    <path d="M68.62 57.585c3.654 0 6.616-2.968 6.616-6.63 0-3.661-2.962-6.63-6.616-6.63-3.654 0-6.616 2.969-6.616 6.63 0 3.662 2.962 6.63 6.616 6.63" fill="#0073A5"/>
    <path d="M112.287 75.627h5.924v-1.653h-3.71v-.053l3.727-8.905v-1.37h-5.61V65.3h3.52v.036l-3.85 9.172v1.12zm12.562-3.821c.018-.23.053-.516.053-1.013 0-2.311-.907-3.964-2.683-3.964-1.813 0-3.171 1.742-3.171 4.603 0 2.684 1.184 4.302 3.362 4.302.784 0 1.603-.16 2.126-.408l-.262-1.37c-.383.179-.905.321-1.515.321-.994 0-1.883-.533-1.9-2.471h3.99zm-3.973-1.351c.035-1.013.402-2.204 1.203-2.204.662 0 1.115.818 1.098 2.204h-2.3zm5.541 5.172h1.865v-5.35c0-.32.035-.604.087-.782.174-.711.592-1.066 1.045-1.066.819 0 .993.853.993 1.706v5.492h1.865v-5.67c0-2.008-.75-3.128-2.178-3.128a2.27 2.27 0 00-2.004 1.155h-.035l-.087-1.013h-1.62c.034.764.07 1.458.07 2.435v6.221zm8.032-10.15v1.494h-1.01v1.386h1.01v4.498c0 1.28.21 1.92.627 2.346.367.373.907.533 1.499.533.522 0 .94-.053 1.22-.142l-.035-1.476a2.965 2.965 0 01-.576.054c-.47 0-.87-.267-.87-1.333v-4.48h1.637v-1.386h-1.638v-2.15l-1.864.657zm4.791 10.15h1.865V71.06c0-.339.017-.623.07-.836.191-.942.853-1.493 1.498-1.493.156 0 .279 0 .383.035v-1.901a1.994 1.994 0 00-.383-.036c-.697 0-1.394.569-1.725 1.457h-.052l-.105-1.315h-1.62c.017.747.07 1.635.07 2.435v6.221zm10.645-8.656h-1.863v5.617c0 .285-.035.551-.105.747-.087.337-.383.853-.94.853-.768 0-.994-.871-.994-2.098v-5.119h-1.847v5.35c0 2.258.61 3.45 2.16 3.45.907 0 1.569-.534 1.9-1.05h.034l.122.906h1.603a51.343 51.343 0 01-.07-2.506v-6.15zm1.917 8.656h1.847v-5.474c0-.249.035-.498.087-.675.157-.712.593-1.067 1.028-1.067.837 0 .94.906.94 1.689v5.527h1.865v-5.51c0-.266.018-.515.053-.693.173-.64.557-1.013 1.028-1.013.836 0 .975.924.975 1.973v5.243h1.847v-5.599c0-2.133-.784-3.2-2.126-3.2-.435 0-.836.107-1.184.32-.332.214-.628.552-.854.925h-.035c-.296-.818-.941-1.244-1.812-1.244-.888 0-1.568.515-1.969 1.173h-.035l-.104-1.03h-1.62c.034.763.07 1.457.07 2.434v6.221zm21.569-7.038h-2.787V65.3h2.962v-1.653h-4.826v11.98h5.035v-1.653h-3.17v-3.803h2.786v-1.582zm1.394 6.648c.384.302 1.15.497 1.812.497 1.603 0 2.805-.906 2.805-2.666 0-1.066-.592-1.92-1.724-2.613-.82-.533-1.028-.8-1.028-1.262 0-.48.313-.907.958-.907.453 0 .836.16 1.167.374l.384-1.405a3.277 3.277 0 00-1.638-.426c-1.516 0-2.597 1.102-2.597 2.595 0 .87.471 1.706 1.726 2.47.783.516 1.028.871 1.028 1.405 0 .622-.401.996-1.063.996-.557 0-1.15-.25-1.464-.463l-.366 1.405zm5.54 0c.384.302 1.15.497 1.812.497 1.604 0 2.805-.906 2.805-2.666 0-1.066-.592-1.92-1.724-2.613-.819-.533-1.028-.8-1.028-1.262 0-.48.314-.907.958-.907.453 0 .837.16 1.167.374l.384-1.405a3.275 3.275 0 00-1.638-.426c-1.516 0-2.596 1.102-2.596 2.595 0 .87.47 1.706 1.725 2.47.783.516 1.028.871 1.028 1.405 0 .622-.4.996-1.063.996-.557 0-1.15-.25-1.463-.463l-.366 1.405zm11.517-3.431c.018-.23.052-.516.052-1.013 0-2.311-.906-3.964-2.682-3.964-1.813 0-3.172 1.742-3.172 4.603 0 2.684 1.185 4.302 3.363 4.302.784 0 1.603-.16 2.125-.408l-.26-1.37c-.384.179-.907.321-1.517.321-.993 0-1.881-.533-1.898-2.471h3.99zm-3.972-1.351c.035-1.013.4-2.204 1.202-2.204.662 0 1.115.818 1.098 2.204h-2.3zm5.54 5.172h1.864v-5.35c0-.32.035-.604.088-.782.173-.711.592-1.066 1.045-1.066.819 0 .993.853.993 1.706v5.492h1.864v-5.67c0-2.008-.749-3.128-2.178-3.128-.889 0-1.602.462-2.003 1.155h-.035l-.087-1.013h-1.62c.035.764.07 1.458.07 2.435v6.221z" fill="#3C3C3B"/>
    <g transform="translate(111.91 45.84)">
      <mask id="f" fill="#fff">
        <use xlink:href="#e"/>
      </mask>
      <path d="M3.862.212C1.499.212.169 2.662.169 6.148c0 3.502 1.172 5.97 3.518 5.97 2.083 0 3.64-1.726 3.64-6.108 0-3.123-.98-5.798-3.465-5.798zm-.087 1.605c1.26 0 1.61 2.174 1.61 4.279 0 2.33-.385 4.417-1.593 4.417-1.19 0-1.68-1.812-1.68-4.348 0-2.433.49-4.348 1.663-4.348zm4.97 10.163h1.873V7.546c0-.329.018-.605.07-.812.194-.914.858-1.449 1.506-1.449.158 0 .28 0 .385.035V3.474a2.033 2.033 0 00-.385-.035c-.7 0-1.4.552-1.733 1.415h-.052l-.105-1.277H8.676c.017.724.07 1.587.07 2.364v6.04zm5.462-9.853v1.45h-1.015v1.346h1.015v4.365c0 1.243.21 1.863.63 2.278.368.362.91.518 1.506.518.525 0 .945-.052 1.225-.139l-.035-1.432a3.112 3.112 0 01-.578.052c-.473 0-.875-.259-.875-1.294V4.923h1.646V3.577H16.08V1.489l-1.873.638zm4.587 9.853h1.872V6.665c0-.207.035-.483.07-.638.193-.707.596-1.035 1.086-1.035.787 0 .98.828.98 1.742v5.246h1.873V6.665c0-2.122-.753-3.226-2.1-3.226-.456 0-.823.12-1.139.31a2.44 2.44 0 00-.735.725h-.035V.04h-1.872V11.98zM29.12 3.44c-1.593 0-3.116 1.328-3.116 4.365 0 2.83 1.243 4.314 3.046 4.314 1.296 0 3.063-.967 3.063-4.366 0-2.76-1.208-4.313-2.993-4.313zm-.035 1.432c.963 0 1.173 1.674 1.173 2.898 0 1.26-.21 2.934-1.138 2.934-.998 0-1.243-1.519-1.243-2.934 0-1.224.192-2.898 1.208-2.898zm4.376 10.422h1.856v-4.055h.035c.245.43.7.88 1.452.88 1.383 0 2.696-1.312 2.696-4.349 0-2.518-.857-4.33-2.556-4.33-.734 0-1.382.38-1.785 1.156h-.035l-.105-1.018h-1.628c.018.707.07 1.518.07 2.64v9.076zM35.318 6.7c0-.224.017-.432.069-.622.105-.551.525-1.069.998-1.069.858 0 1.26 1.121 1.26 2.778 0 1.484-.332 2.813-1.277 2.813-.298 0-.735-.173-.963-.984a2.826 2.826 0 01-.087-.708V6.7zm6.669-4.435c.525 0 .91-.396.91-.949 0-.569-.385-.949-.91-.949a.924.924 0 00-.928.95c0 .552.42.948.91.948h.018zm2.94 0c.525 0 .91-.396.91-.949 0-.569-.402-.949-.91-.949a.924.924 0 00-.928.95c0 .552.404.948.91.948h.018zm1.12 4.452c0-1.794-.56-3.278-2.765-3.278-1.033 0-1.925.345-2.346.603l.35 1.26c.474-.293.98-.465 1.593-.465.928 0 1.278.62 1.278 1.483v.225c-1.925.017-3.78.931-3.78 3.088 0 1.467.927 2.485 2.152 2.485.736 0 1.365-.345 1.804-1.001h.034l.105.863h1.68c-.087-.552-.104-1.26-.104-1.915V6.717zM44.21 9.34c0 .155-.017.31-.053.43-.158.657-.612.967-1.068.967-.42 0-.927-.345-.927-1.294 0-1.466 1.312-1.656 2.048-1.674v1.57zm7.387-9.3v4.314h-.035c-.28-.587-.788-.915-1.488-.915-1.383 0-2.678 1.415-2.678 4.365 0 2.536.927 4.314 2.59 4.314.823 0 1.47-.535 1.768-1.139h.053l.105 1.001h1.61a48.225 48.225 0 01-.07-2.278V.039h-1.855zm0 8.972c0 .207-.018.397-.07.552-.228.846-.665 1.036-1.016 1.036-.787 0-1.242-1.088-1.242-2.779 0-1.5.332-2.812 1.277-2.812.56 0 .946.586 1.016 1.26.035.172.035.362.035.517v2.226zm3.517 2.968h1.874V3.577h-1.874v8.403zM56.043.316c-.56 0-1.016.414-.998 1.07-.018.62.42 1.052.962 1.052.613 0 1.051-.431 1.034-1.053 0-.655-.42-1.07-.998-1.07zm2.1 11.284c.386.293 1.155.484 1.82.484 1.612 0 2.819-.881 2.819-2.589 0-1.035-.596-1.863-1.733-2.536-.823-.518-1.032-.777-1.032-1.225 0-.466.314-.88.962-.88.455 0 .84.155 1.173.362l.385-1.363a3.38 3.38 0 00-1.646-.414c-1.522 0-2.608 1.07-2.608 2.519 0 .845.473 1.656 1.734 2.398.786.5 1.032.846 1.032 1.363 0 .604-.403.967-1.068.967-.56 0-1.155-.242-1.47-.45l-.368 1.364zm10.135-1.225c-.262.138-.56.19-.91.19-1.137 0-1.838-1.035-1.838-2.761 0-1.536.63-2.83 1.838-2.83.42 0 .718.121.91.19l.28-1.466c-.227-.121-.718-.242-1.225-.242-2.258 0-3.676 1.88-3.676 4.383 0 2.76 1.348 4.245 3.378 4.245.63 0 1.174-.139 1.436-.277l-.193-1.432zm1.138 1.605h1.873V6.665a3.4 3.4 0 01.07-.638c.193-.707.596-1.035 1.085-1.035.788 0 .98.828.98 1.742v5.246h1.874V6.665c0-2.122-.753-3.226-2.1-3.226-.456 0-.824.12-1.139.31-.28.173-.542.432-.735.725h-.035V.04h-1.873V11.98zm13.041-3.71c.018-.224.052-.5.052-.984 0-2.243-.91-3.847-2.696-3.847-1.82 0-3.186 1.69-3.186 4.469 0 2.605 1.191 4.176 3.38 4.176.787 0 1.61-.156 2.135-.398l-.263-1.328c-.385.173-.91.31-1.523.31-.997 0-1.89-.518-1.908-2.398h4.009zM78.466 6.96c.035-.984.403-2.14 1.207-2.14.666 0 1.12.794 1.103 2.14h-2.31zm4.831 4.641c.386.293 1.155.484 1.82.484 1.61 0 2.82-.881 2.82-2.589 0-1.035-.596-1.863-1.734-2.536-.823-.518-1.033-.777-1.033-1.225 0-.466.315-.88.963-.88.455 0 .84.155 1.173.362l.385-1.363a3.385 3.385 0 00-1.646-.414c-1.523 0-2.608 1.07-2.608 2.519 0 .845.473 1.656 1.733 2.398.788.5 1.033.846 1.033 1.363 0 .604-.403.967-1.068.967-.56 0-1.155-.242-1.47-.45l-.368 1.364z" fill="#3C3C3B" mask="url(#f)"/>
    </g>
  </g>
</svg>
