<svg width="157" height="80" xmlns="http://www.w3.org/2000/svg" xmlns:xlink="http://www.w3.org/1999/xlink">
  <defs>
    <path id="a" d="M0 .003h80.637v37.721H0z"/>
    <path id="c" d="M.125.056h5.071v5.221H.126z"/>
    <path id="e" d="M.132.031H69.03v11.974H.132z"/>
  </defs>
  <g fill="none" fill-rule="evenodd">
    <g transform="translate(0 22.305)">
      <mask id="b" fill="#fff">
        <use xlink:href="#a"/>
      </mask>
      <path d="M11.522.003C4.15.003 0 7.766 0 18.81c0 11.098 3.659 18.915 10.976 18.915 6.498 0 11.358-5.466 11.358-19.352 0-9.895-3.058-18.369-10.812-18.369zm-.273 5.084c3.932 0 5.024 6.889 5.024 13.558 0 7.38-1.202 13.995-4.97 13.995-3.713 0-5.242-5.74-5.242-13.776 0-7.708 1.53-13.777 5.188-13.777zm13.432 32.2h18.566v-5.084h-11.63v-.164L43.301 4.65V.44H25.72v5.085h11.03v.11L24.681 33.842v3.444zm54.755-21.649h-8.737V5.525h9.283V.44H64.856v36.846h15.781v-5.084H70.7V20.504h8.737v-4.866z" fill="#3C3C3B" mask="url(#b)"/>
    </g>
    <path d="M54.015 30.632a4.456 4.456 0 004.452-4.46 4.456 4.456 0 00-4.452-4.462 4.456 4.456 0 00-4.452 4.461 4.456 4.456 0 004.452 4.461M54.015 58.29a4.456 4.456 0 004.452-4.46 4.457 4.457 0 00-4.452-4.462 4.456 4.456 0 00-4.452 4.461 4.456 4.456 0 004.452 4.461" fill="#3EA3DC"/>
    <path d="M53.718 70.78a4.16 4.16 0 004.155-4.163 4.16 4.16 0 00-4.155-4.163 4.16 4.16 0 00-4.155 4.163 4.16 4.16 0 004.155 4.164" fill="#86C2EB"/>
    <g transform="translate(51.344)">
      <mask id="d" fill="#fff">
        <use xlink:href="#c"/>
      </mask>
      <path d="M2.66 5.277c1.401 0 2.536-1.169 2.536-2.61 0-1.442-1.135-2.611-2.535-2.611-1.4 0-2.536 1.169-2.536 2.61 0 1.442 1.135 2.611 2.536 2.611" fill="#BCE4FA" mask="url(#d)"/>
    </g>
    <path d="M53.867 80a2.525 2.525 0 002.522-2.528 2.525 2.525 0 00-2.522-2.528 2.525 2.525 0 00-2.523 2.528A2.525 2.525 0 0053.867 80" fill="#BCE4FA"/>
    <path d="M53.718 17.546a4.16 4.16 0 004.155-4.163 4.16 4.16 0 00-4.155-4.164 4.16 4.16 0 00-4.155 4.164 4.16 4.16 0 004.155 4.163" fill="#86C2EB"/>
    <path d="M53.867 45.204A5.2 5.2 0 0059.06 40a5.2 5.2 0 00-5.193-5.204A5.2 5.2 0 0048.673 40a5.2 5.2 0 005.194 5.204" fill="#0073A5"/>
    <path d="M88.146 59.368h4.65V58.07h-2.913v-.042l2.926-6.99v-1.075h-4.404v1.298h2.763v.028l-3.022 7.2v.879zm9.86-3c.015-.182.042-.405.042-.796 0-1.814-.712-3.111-2.106-3.111-1.423 0-2.49 1.367-2.49 3.613 0 2.107.93 3.378 2.64 3.378.615 0 1.258-.126 1.669-.321l-.206-1.075c-.3.14-.71.251-1.19.251-.78 0-1.477-.418-1.49-1.94h3.131zm-3.118-1.06c.027-.796.315-1.731.944-1.731.52 0 .875.642.862 1.73h-1.806zm4.35 4.06h1.463v-4.2c0-.251.028-.475.068-.614.137-.559.466-.837.82-.837.644 0 .78.67.78 1.34v4.31h1.464v-4.45c0-1.577-.588-2.456-1.71-2.456-.697 0-1.258.363-1.573.907h-.027l-.068-.796h-1.272c.027.6.055 1.145.055 1.912v4.884zm6.305-7.968v1.172h-.793v1.089h.793v3.53c0 1.005.164 1.507.492 1.842.288.293.711.419 1.176.419.41 0 .739-.043.958-.112l-.028-1.159a2.327 2.327 0 01-.451.043c-.37 0-.684-.21-.684-1.047V53.66h1.286v-1.089h-1.286v-1.688l-1.463.516zm3.76 7.968h1.464v-3.586c0-.266.014-.489.055-.656.15-.74.67-1.172 1.176-1.172a.96.96 0 01.301.028v-1.493a1.565 1.565 0 00-.3-.028c-.548 0-1.095.446-1.355 1.144h-.04l-.083-1.033h-1.272c.014.587.054 1.284.054 1.912v4.884zm8.357-6.796h-1.463v4.41c0 .223-.027.432-.082.586-.069.265-.3.67-.739.67-.602 0-.779-.684-.779-1.647v-4.019h-1.45v4.2c0 1.772.478 2.708 1.696 2.708.711 0 1.23-.42 1.49-.824h.028l.096.712h1.258a40.305 40.305 0 01-.055-1.968v-4.828zm1.505 6.796h1.45V55.07c0-.195.027-.391.068-.53.123-.558.465-.837.806-.837.657 0 .739.711.739 1.325v4.34h1.464v-4.326c0-.21.013-.405.04-.544.137-.503.438-.795.808-.795.656 0 .766.725.766 1.548v4.117h1.45v-4.396c0-1.674-.616-2.511-1.67-2.511-.341 0-.656.083-.93.25-.26.168-.492.433-.67.726h-.027c-.232-.641-.738-.976-1.422-.976-.698 0-1.231.404-1.545.92h-.028l-.082-.809h-1.272c.027.6.055 1.145.055 1.912v4.884zm16.931-5.526h-2.187v-2.581h2.325v-1.298h-3.79v9.405h3.954V58.07h-2.49v-2.986h2.188v-1.242zm1.095 5.219c.3.237.902.39 1.422.39 1.259 0 2.202-.71 2.202-2.093 0-.837-.465-1.506-1.354-2.05-.643-.42-.806-.63-.806-.992 0-.376.245-.711.752-.711.355 0 .656.125.916.293l.3-1.102a2.572 2.572 0 00-1.285-.335c-1.19 0-2.038.865-2.038 2.037 0 .684.37 1.34 1.355 1.94.614.404.806.683.806 1.102 0 .488-.315.781-.834.781-.437 0-.903-.195-1.149-.363l-.287 1.103zm4.349 0c.301.237.902.39 1.422.39 1.259 0 2.202-.71 2.202-2.093 0-.837-.465-1.506-1.354-2.05-.642-.42-.806-.63-.806-.992 0-.376.246-.711.752-.711.355 0 .656.125.916.293l.301-1.102a2.571 2.571 0 00-1.286-.335c-1.19 0-2.038.865-2.038 2.037 0 .684.37 1.34 1.355 1.94.614.404.806.683.806 1.102 0 .488-.314.781-.834.781-.438 0-.903-.195-1.149-.363l-.287 1.103zm9.04-2.693c.014-.182.041-.405.041-.796 0-1.814-.71-3.111-2.106-3.111-1.422 0-2.49 1.367-2.49 3.613 0 2.107.931 3.378 2.64 3.378.616 0 1.259-.126 1.669-.321l-.205-1.075c-.3.14-.711.251-1.19.251-.78 0-1.477-.418-1.49-1.94h3.132zm-3.118-1.06c.028-.796.315-1.731.943-1.731.52 0 .876.642.863 1.73h-1.806zm4.35 4.06h1.462v-4.2c0-.251.028-.475.07-.614.136-.559.464-.837.82-.837.643 0 .78.67.78 1.34v4.31h1.462v-4.45c0-1.577-.587-2.456-1.71-2.456-.697 0-1.257.363-1.572.907h-.027l-.068-.796h-1.272c.027.6.055 1.145.055 1.912v4.884z" fill="#3C3C3B"/>
    <g transform="translate(87.849 35.985)">
      <mask id="f" fill="#fff">
        <use xlink:href="#e"/>
      </mask>
      <path d="M3.032.167c-1.855 0-2.9 1.923-2.9 4.659 0 2.75.921 4.687 2.763 4.687 1.634 0 2.857-1.355 2.857-4.795 0-2.452-.77-4.551-2.72-4.551zm-.069 1.26c.99 0 1.264 1.706 1.264 3.358 0 1.829-.302 3.468-1.25 3.468-.935 0-1.32-1.422-1.32-3.414 0-1.91.385-3.413 1.306-3.413zm3.902 7.977h1.47v-3.48c0-.258.014-.475.056-.638.151-.718.673-1.137 1.181-1.137.124 0 .22 0 .303.027v-1.45a1.596 1.596 0 00-.303-.027c-.55 0-1.099.434-1.36 1.111H8.17l-.082-1.002H6.81c.013.569.054 1.246.054 1.856v4.74zm4.288-7.734v1.138h-.797v1.056h.797v3.427c0 .975.164 1.463.495 1.788.288.284.714.407 1.181.407.412 0 .742-.041.962-.11l-.028-1.123c-.15.027-.288.04-.453.04-.371 0-.687-.203-.687-1.016V3.864h1.292V2.808h-1.292v-1.64l-1.47.502zm3.6 7.734h1.47V5.232c0-.162.027-.38.055-.5.152-.556.467-.814.852-.814.618 0 .77.65.77 1.368v4.118h1.47V5.232c0-1.666-.59-2.533-1.65-2.533a1.68 1.68 0 00-.892.244c-.22.136-.426.339-.578.57h-.027V.03h-1.47v9.373zM22.86 2.7c-1.25 0-2.446 1.043-2.446 3.427 0 2.221.976 3.387 2.391 3.387 1.017 0 2.405-.76 2.405-3.428 0-2.167-.949-3.386-2.35-3.386zm-.028 1.125c.756 0 .921 1.314.921 2.275 0 .99-.165 2.303-.893 2.303-.783 0-.976-1.192-.976-2.303 0-.961.151-2.275.948-2.275zm3.436 8.18h1.457V8.823h.027c.192.338.549.69 1.14.69 1.086 0 2.116-1.03 2.116-3.413 0-1.977-.673-3.4-2.006-3.4-.577 0-1.085.298-1.402.908h-.027l-.083-.8h-1.277c.014.556.055 1.193.055 2.073v7.125zm1.457-6.745c0-.176.013-.339.054-.487.082-.433.412-.84.783-.84.674 0 .99.88.99 2.18 0 1.165-.261 2.209-1.003 2.209-.234 0-.577-.136-.756-.772a2.219 2.219 0 01-.068-.556V5.259zm5.235-3.48c.412 0 .714-.312.714-.746 0-.447-.302-.745-.714-.745a.725.725 0 00-.729.745c0 .434.33.745.715.745h.014zm2.308 0c.412 0 .715-.312.715-.746 0-.447-.317-.745-.715-.745a.725.725 0 00-.729.745c0 .434.317.745.715.745h.014zm.88 3.494c0-1.409-.44-2.574-2.171-2.574-.811 0-1.512.271-1.842.474l.275.99c.371-.23.77-.366 1.25-.366.729 0 1.004.487 1.004 1.164v.177c-1.512.013-2.969.731-2.969 2.424 0 1.152.729 1.95 1.69 1.95.578 0 1.072-.27 1.416-.785h.027l.083.677h1.319c-.069-.433-.083-.989-.083-1.503V5.273zm-1.443 2.059c0 .122-.014.243-.041.338-.125.515-.481.759-.839.759-.33 0-.728-.271-.728-1.016 0-1.151 1.03-1.3 1.608-1.314v1.233zM40.503.03v3.387h-.027c-.22-.461-.618-.719-1.168-.719-1.086 0-2.102 1.111-2.102 3.427 0 1.991.728 3.387 2.033 3.387.646 0 1.155-.42 1.388-.894h.042l.082.785h1.264a37.857 37.857 0 01-.055-1.788V.031h-1.457zm0 7.044c0 .162-.013.31-.055.433-.178.663-.522.813-.797.813-.618 0-.975-.854-.975-2.181 0-1.179.26-2.208 1.003-2.208.44 0 .742.46.797.988a2.1 2.1 0 01.027.407v1.748zm2.762 2.329h1.47V2.808h-1.47v6.596zm.729-9.156c-.44 0-.797.325-.784.84-.013.487.33.826.756.826.48 0 .825-.339.81-.826 0-.515-.33-.84-.782-.84zm1.648 8.858c.303.23.907.38 1.43.38 1.264 0 2.212-.692 2.212-2.032 0-.813-.468-1.463-1.36-1.991-.647-.407-.811-.61-.811-.962 0-.366.247-.69.756-.69.357 0 .66.121.92.284l.303-1.07a2.654 2.654 0 00-1.293-.326c-1.195 0-2.047.84-2.047 1.978 0 .664.371 1.3 1.361 1.883.618.392.81.663.81 1.07 0 .474-.316.758-.838.758-.44 0-.907-.19-1.154-.352l-.289 1.07zm7.956-.962c-.205.109-.44.15-.714.15-.893 0-1.443-.813-1.443-2.168 0-1.206.495-2.221 1.443-2.221.33 0 .564.095.714.149l.22-1.151c-.178-.095-.564-.19-.962-.19-1.772 0-2.885 1.476-2.885 3.44 0 2.168 1.058 3.333 2.652 3.333.494 0 .92-.11 1.127-.217l-.152-1.125zm.893 1.26h1.47V5.232c0-.162.029-.38.056-.5.151-.556.467-.814.852-.814.618 0 .769.65.769 1.368v4.118h1.47V5.232c0-1.666-.59-2.533-1.648-2.533-.358 0-.646.095-.893.244-.22.136-.426.339-.577.57h-.028V.03h-1.47v9.373zM64.73 6.492c.014-.176.04-.393.04-.772 0-1.761-.714-3.02-2.115-3.02-1.43 0-2.501 1.327-2.501 3.508 0 2.045.934 3.278 2.652 3.278.618 0 1.264-.123 1.677-.312l-.207-1.043a2.954 2.954 0 01-1.195.244c-.783 0-1.484-.407-1.498-1.883h3.147zm-3.133-1.03c.027-.771.316-1.679.948-1.679.522 0 .879.623.865 1.68h-1.813zm3.792 3.644c.303.23.907.38 1.43.38 1.263 0 2.212-.692 2.212-2.032 0-.813-.468-1.463-1.36-1.991-.647-.407-.812-.61-.812-.962 0-.366.248-.69.757-.69.356 0 .659.121.92.284l.303-1.07a2.657 2.657 0 00-1.293-.326c-1.195 0-2.047.84-2.047 1.978 0 .664.371 1.3 1.36 1.883.619.392.811.663.811 1.07 0 .474-.316.758-.838.758-.44 0-.907-.19-1.154-.352l-.289 1.07z" fill="#3C3C3B" mask="url(#f)"/>
    </g>
  </g>
</svg>
