<?xml version="1.0" encoding="utf-8"?>
<!-- Generator: Adobe Illustrator 25.4.1, SVG Export Plug-In . SVG Version: 6.00 Build 0)  -->
<svg version="1.1" id="Ebene_1" xmlns="http://www.w3.org/2000/svg" xmlns:xlink="http://www.w3.org/1999/xlink" x="0px" y="0px"
	 viewBox="0 0 60 60" style="enable-background:new 0 0 60 60;" xml:space="preserve">
<path d="M7.4,5.6c-1,0-1.7,0.8-1.7,1.7v13.9c0,1-0.8,1.7-1.7,1.7s-1.7-0.8-1.7-1.7V7.4c0-2.9,2.3-5.2,5.2-5.2h13.9
	c1,0,1.7,0.8,1.7,1.7s-0.8,1.7-1.7,1.7H7.4z M37,3.9c0-1,0.8-1.7,1.7-1.7h13.9c2.9,0,5.2,2.3,5.2,5.2v13.9c0,1-0.8,1.7-1.7,1.7
	c-1,0-1.7-0.8-1.7-1.7V7.4c0-1-0.8-1.7-1.7-1.7H38.7C37.7,5.6,37,4.8,37,3.9z M3.9,37c1,0,1.7,0.8,1.7,1.7v13.9c0,1,0.8,1.7,1.7,1.7
	h13.9c1,0,1.7,0.8,1.7,1.7c0,1-0.8,1.7-1.7,1.7H7.4c-2.9,0-5.2-2.3-5.2-5.2l0,0V38.7C2.1,37.7,2.9,37,3.9,37z M56.1,37
	c1,0,1.7,0.8,1.7,1.7v13.9c0,2.9-2.3,5.2-5.2,5.2l0,0H38.7c-1,0-1.7-0.8-1.7-1.7c0-1,0.8-1.7,1.7-1.7h13.9c1,0,1.7-0.8,1.7-1.7V38.7
	C54.4,37.7,55.2,37,56.1,37z"/>
</svg>
