<svg version="1.1" id="Ebene_1" xmlns="http://www.w3.org/2000/svg" x="0" y="0" viewBox="0 0 438.9 438.9" xml:space="preserve">
  <path d="M372.9 376.2c42.6-41.7 66-97.3 66-156.7 0-59.4-23.4-115.1-66-156.7C331.6 22.3 277.1 0 219.4 0 161.8 0 107.3 22.3 66 62.7 23.4 104.4 0 160 0 219.4c0 59.4 23.4 115.1 66 156.7 15 14.6 31.8 27 50.1 36.8.1 0 .1 0 .2.1.1 0 .1.1.2.1 2.2 1.2 4.5 2.3 6.7 3.4 3.9 1.9 7.9 3.7 11.7 5.3h.1c.4.2 1 .4 1.8.7l.5.2c2.6 1.1 5.1 2 7.5 2.9.3.1.5.2.8.3 3.2 1.2 6.3 2.2 9.2 3.1 1.1.3 2.3.6 3.5.9l1.9.5h.1c5 1.4 10 2.8 15.1 3.8.1 0 .2 0 .3.1 1 .2 2 .3 2.9.5 1.4.2 2.8.5 4.2.7l.5.1 5.7.9c2.7.5 5.4.9 8.2 1.2 7.4.7 14.9 1.1 22.2 1.1 7.3 0 14.8-.4 22.2-1.1 2.7-.3 5.4-.7 8-1.2l6.5-1c2.4-.3 4.7-.7 7.1-1.1 5.2-1.1 10.3-2.5 15.4-3.9l1.9-.5c1.2-.3 2.3-.6 3.4-.9 2.6-.8 5.2-1.7 8-2.7.1-.1.3-.1.4-.2 3-1.1 6.2-2.3 9.8-3.7.6-.2 1.1-.4 1.7-.6 3.7-1.5 7.3-3.2 11-5 .3-.1.6-.3.9-.4 1.6-.8 3.2-1.6 4.8-2.5.7-.4 1.4-.7 2.1-1.1 2-1.1 4-2.3 6-3.5 11.5-6.6 22.5-14.2 32.6-22.8 4.1-3.3 7.9-6.8 11.7-10.4zm-25.7-1.6c-2.1 1.8-4.3 3.5-6.5 5.2-1.4 1.1-2.9 2.2-4.3 3.2-2.1 1.5-4.3 3-6.6 4.5-1.5 1-3 2-4.6 3-2.7 1.7-5.4 3.2-8.1 4.7-1.1.6-2.1 1.3-3.2 1.9-.3.2-.6.3-.9.4-2.1 1.1-4.1 2.1-6.3 3.1-2 1-4.1 1.9-6.1 2.8-1.4.6-2.8 1.3-4.3 1.9l-1.4.5c-6.1 2.5-11.2 4.3-16.1 5.8-.8.2-1.5.4-2.3.6-.8.2-1.5.4-2.3.6.3-.4.7-.8 1-1.1 1-1 2-2.1 2.9-3.2 1.1-1.2 2.1-2.4 3.1-3.7.9-1.1 1.9-2.3 2.8-3.5 1-1.3 2-2.7 3.1-4.1.9-1.2 1.8-2.5 2.6-3.8 1-1.5 2-3 3-4.6.8-1.3 1.6-2.6 2.4-4 1-1.7 1.9-3.4 2.9-5.1.8-1.4 1.5-2.8 2.3-4.2 1-1.8 1.9-3.7 2.8-5.6.7-1.4 1.4-2.9 2.1-4.3.9-2 1.8-4.1 2.7-6.2.6-1.5 1.2-2.9 1.8-4.4.9-2.2 1.8-4.6 2.6-6.9.5-1.5 1.1-2.9 1.6-4.4l.3-.9c1.3.7 2.6 1.3 3.9 2.1l3.6 2.1c4.2 2.5 8.3 5 12.3 7.8.1.1.3.2.4.3 4.1 2.8 8 5.9 11.9 9 1.1.9 2.1 1.8 3.2 2.6 1.2 1 2.3 2 3.4 3.1-.6.6-1.3 1.2-1.9 1.8-1.3.9-2.5 1.9-3.8 3zm-237.4 13.3c-2.5-1.6-5-3.3-7.4-5.1-1.3-1-2.6-1.9-3.9-2.9-2.3-1.7-4.5-3.5-6.7-5.3-1.3-1-2.5-2.1-3.8-3.1-.6-.6-1.2-1.2-1.9-1.7 1.1-1 2.2-2.1 3.4-3 1.1-.9 2.1-1.8 3.2-2.7 3.8-3.1 7.8-6.1 11.8-8.9.2-.1.4-.2.5-.3 4-2.7 8.1-5.3 12.2-7.7l3.6-2.1 3.9-2.1.3.9c.5 1.5 1.1 3 1.7 4.5.8 2.2 1.7 4.5 2.6 6.7.6 1.6 1.3 3.1 2 4.7.8 2 1.7 4 2.6 5.9.7 1.6 1.5 3.1 2.2 4.6.9 1.8 1.7 3.6 2.6 5.3.8 1.5 1.6 3 2.4 4.4.9 1.7 1.8 3.3 2.8 4.9.8 1.4 1.7 2.8 2.5 4.1 1 1.5 1.9 3 2.9 4.5l2.7 3.9c1 1.4 2 2.7 3 4.1.9 1.2 1.9 2.4 2.8 3.6 1 1.3 2.1 2.5 3.1 3.7 1 1.1 1.9 2.2 2.9 3.2.3.4.7.8 1 1.1-.8-.2-1.5-.4-2.3-.6-.8-.2-1.5-.4-2.3-.6-2.7-.8-5.5-1.8-8.4-2.9-2.4-.9-4.9-1.8-7.7-3l-2.1-.8c-3.3-1.4-6.6-2.9-9.8-4.5-2.1-1-4.3-2.1-6.5-3.3l-.6-.3c-.1 0-.1-.1-.2-.1 0 0-.1 0-.1-.1-3.9-2.1-7.7-4.3-11.4-6.6l-3.6-2.4zm33.4-289.2c.7-1.9 1.4-3.7 2.1-5.5.5-1.3 1-2.6 1.6-3.9.7-1.8 1.5-3.5 2.2-5.2.5-1.2 1.1-2.4 1.6-3.6.8-1.8 1.7-3.5 2.5-5.2.5-1 1-2.1 1.5-3.1 1.1-2.2 2.3-4.3 3.5-6.3.3-.5.5-1 .8-1.4 1.4-2.4 2.9-4.8 4.4-7.1.5-.8 1.1-1.6 1.6-2.4 1-1.5 2-2.9 3-4.3.6-.8 1.3-1.7 1.9-2.5 1-1.2 1.9-2.5 2.9-3.6.7-.8 1.3-1.6 2-2.3 1-1.1 2-2.2 3-3.2.7-.7 1.3-1.4 2-2.1 1.1-1.1 2.2-2.1 3.3-3 .6-.5 1.2-1.1 1.8-1.6 1.5-1.2 2.9-2.3 4.4-3.4.3-.2.5-.4.8-.6 1.8-1.2 3.5-2.3 5.3-3.3.5-.3 1-.5 1.6-.8 1.3-.7 2.6-1.3 3.9-1.9.7-.3 1.3-.5 2-.8 1.2-.5 2.4-.9 3.6-1.2l2.1-.6c.5-.1 1.1-.2 1.6-.3V120h-.7c-5.1-.3-10.3-.7-15.4-1.4-1.1-.1-2.2-.3-3.4-.5-5.2-.8-10.3-1.6-15.4-2.8-.4-.1-.7-.2-1.1-.3-4.8-1.1-9.6-2.5-14.4-4-1-.3-2.1-.6-3.1-1-4.9-1.6-9.7-3.4-14.5-5.4-.3-.1-.7-.3-1-.5.2-.5.3-.9.5-1.4.6-1.4 1.1-2.7 1.5-4zm89.1-78.4l3.6 1.2c.7.3 1.3.5 2 .8 1.3.6 2.6 1.2 3.9 1.9.5.3 1.1.5 1.6.8 1.8 1 3.6 2.1 5.3 3.3.3.2.6.4.8.6 1.5 1.1 2.9 2.2 4.4 3.4.6.5 1.2 1.1 1.8 1.6l3.3 3c.7.7 1.3 1.4 2 2.1 1 1 2 2.1 3 3.2.7.8 1.4 1.5 2 2.3 1 1.2 1.9 2.4 2.9 3.6.6.8 1.3 1.6 1.9 2.5 1 1.4 2 2.8 3 4.3.5.8 1.1 1.5 1.6 2.3 1.5 2.3 3 4.6 4.4 7.1.3.5.5 1 .8 1.4 1.2 2 2.3 4.1 3.4 6.3.5 1 1 2.1 1.6 3.1.8 1.7 1.7 3.4 2.5 5.1.6 1.2 1.1 2.4 1.6 3.6.8 1.7 1.5 3.4 2.2 5.2.5 1.3 1.1 2.6 1.6 3.9.7 1.8 1.4 3.6 2.1 5.5.5 1.3 1 2.7 1.5 4 .2.5.3.9.5 1.4-.3.1-.7.3-1 .4-4.8 2-9.6 3.8-14.5 5.5-1 .3-2 .6-3.1 1-4.8 1.5-9.6 2.9-14.5 4-.3.1-.7.2-1 .3-5.1 1.2-10.2 2.1-15.4 2.8-1.1.2-2.2.3-3.4.5-5.1.7-10.2 1.1-15.4 1.4h-.7V19.4c.5.1 1.1.2 1.6.3l2.1.6zm63.3 319.9c-.7 1.8-1.4 3.7-2.1 5.4-.5 1.3-1 2.6-1.6 3.9-.7 1.8-1.5 3.5-2.2 5.2-.5 1.2-1.1 2.4-1.6 3.6-.8 1.8-1.6 3.5-2.5 5.2-.5 1-1 2.1-1.6 3.1-1.1 2.2-2.3 4.2-3.4 6.3-.3.5-.5 1-.8 1.4-1.4 2.5-2.9 4.8-4.4 7.1-.5.8-1.1 1.6-1.6 2.3-1 1.5-2 2.9-3 4.3-.6.8-1.3 1.7-1.9 2.5-1 1.2-1.9 2.5-2.9 3.6-.7.8-1.3 1.6-2 2.3l-3 3.3c-.7.7-1.3 1.4-2 2-1.1 1.1-2.2 2.1-3.3 3.1-.6.5-1.2 1.1-1.8 1.6-1.5 1.2-2.9 2.3-4.4 3.4-.3.2-.5.4-.8.6-1.8 1.2-3.5 2.3-5.3 3.3-.5.3-1 .5-1.5.8-1.3.7-2.6 1.3-3.9 1.9-.7.3-1.3.5-2 .8-1.2.5-2.4.9-3.6 1.2l-2.1.6c-.5.1-1.1.2-1.6.3V318.9h.8c5.1.3 10.3.7 15.3 1.4 1.1.1 2.3.3 3.4.5 5.2.8 10.3 1.6 15.4 2.8.3.1.7.2 1 .3 4.9 1.1 9.7 2.5 14.5 4 1 .3 2 .6 3 1 4.9 1.6 9.7 3.4 14.5 5.5.3.1.7.3 1 .4-.2.5-.3.9-.5 1.4-.5 1.3-1 2.7-1.5 4zm-87 79l-2.1-.6-3.6-1.2c-.7-.2-1.3-.5-2-.8-1.3-.6-2.6-1.2-3.9-1.9-.5-.3-1-.5-1.5-.8-1.8-1-3.6-2.1-5.3-3.3-.3-.2-.5-.4-.8-.6-1.5-1.1-3-2.2-4.4-3.4-.6-.5-1.2-1.1-1.8-1.6-1.1-1-2.2-2-3.3-3.1l-2-2c-1-1.1-2-2.1-3-3.3-.7-.8-1.3-1.5-2-2.3-1-1.2-2-2.4-2.9-3.6-.6-.8-1.3-1.6-1.9-2.5-1-1.4-2-2.8-3-4.3-.5-.8-1.1-1.5-1.6-2.4-1.5-2.3-3-4.6-4.4-7.1-.3-.5-.5-1-.8-1.4-1.2-2.1-2.3-4.1-3.5-6.3-.5-1-1-2.1-1.5-3.1-.8-1.7-1.7-3.4-2.5-5.2-.6-1.2-1.1-2.4-1.6-3.6-.8-1.7-1.5-3.4-2.2-5.2-.5-1.3-1.1-2.6-1.6-3.9-.7-1.8-1.4-3.6-2.1-5.5-.5-1.3-1-2.7-1.4-4-.2-.5-.3-.9-.5-1.4.3-.1.7-.3 1-.5 4.8-2 9.6-3.8 14.5-5.4 1-.3 2.1-.7 3.1-1 4.8-1.5 9.6-2.9 14.4-4 .4-.1.7-.2 1.1-.3 5.1-1.2 10.2-2.1 15.4-2.8 1.1-.2 2.3-.3 3.4-.5 5.1-.7 10.2-1.1 15.3-1.4h.8v100.6c-.7-.1-1.2-.2-1.8-.3zm-76.9-119.8c-1.5-6.9-2.7-13.9-3.8-21-.2-1.2-.4-2.3-.6-3.5-1.2-8.3-2-16.8-2.7-25.4-.2-2.6-.3-5.2-.4-7.8-.2-4.3-.4-8.7-.5-13.1h86.5v72c-.4 0-.7.1-1.1.1-5.5.3-11 .7-16.5 1.4-1.2.1-2.4.3-3.6.5-5.2.7-10.5 1.6-15.6 2.8-.4.1-.8.2-1.3.2-5.5 1.2-10.9 2.7-16.3 4.4-1.2.4-2.4.7-3.6 1.1-5.3 1.7-10.6 3.7-15.9 5.8-.1 0-.2.1-.3.1-.9-3.3-1.8-6.6-2.6-10-.5-2.5-1.2-5-1.7-7.6zm-7.1-110c.6-8.6 1.5-17 2.7-25.4.2-1.2.4-2.3.6-3.5 1.1-7.2 2.3-14.2 3.8-21.1.6-2.6 1.2-5.1 1.8-7.7.8-3.4 1.7-6.7 2.6-10 .1 0 .2.1.3.1 5.2 2.2 10.6 4.1 15.9 5.8 1.2.4 2.4.8 3.6 1.1 5.4 1.7 10.8 3.2 16.3 4.4.4.1.9.2 1.3.2 5.2 1.1 10.4 2 15.6 2.8 1.2.2 2.4.4 3.6.5 5.5.7 10.9 1.2 16.5 1.4.4 0 .7.1 1.1.1v72h-86.5c.1-4.4.2-8.8.5-13.1 0-2.4.1-5 .3-7.6zm121.5-52.7c1.2-.1 2.4-.3 3.6-.5 5.2-.7 10.4-1.6 15.6-2.8.4-.1.9-.2 1.3-.3 5.4-1.2 10.8-2.7 16.2-4.4 1.3-.4 2.5-.8 3.8-1.2 5.3-1.7 10.5-3.6 15.7-5.7.1-.1.2-.1.4-.1.9 3.3 1.8 6.6 2.6 9.9.6 2.6 1.3 5.1 1.8 7.8 1.5 6.9 2.7 13.9 3.8 21 .2 1.2.4 2.3.6 3.5 1.2 8.3 2 16.8 2.7 25.4.2 2.6.3 5.2.4 7.8.2 4.3.4 8.7.5 13.1h-86.5v-72c.4 0 .7-.1 1.1-.1 5.5-.2 11-.7 16.4-1.4zm68.2 112.8c-.6 8.6-1.5 17-2.7 25.3l-.6 3.6c-1.1 7.1-2.3 14.1-3.8 21l-1.8 7.8c-.8 3.4-1.7 6.6-2.6 9.9-.1-.1-.3-.1-.4-.1-5.2-2.1-10.4-4-15.7-5.8-1.2-.4-2.5-.8-3.8-1.2-5.4-1.6-10.8-3.1-16.2-4.4-.4-.1-.9-.2-1.3-.3-5.2-1.1-10.4-2-15.6-2.8-1.2-.2-2.4-.4-3.6-.5-5.5-.7-11-1.2-16.5-1.4-.4 0-.7-.1-1.1-.1v-72h86.5c-.1 4.4-.2 8.8-.5 13.1-.1 2.7-.2 5.3-.3 7.9zm51.9 107.3c-1.4-1.3-3-2.5-4.5-3.8-1.3-1.1-2.6-2.3-4-3.4-3.8-3-7.6-6-11.6-8.8-.5-.4-1.1-.8-1.6-1.2-4.6-3.1-9.3-6.1-14.1-8.9-1.3-.8-2.7-1.5-4-2.2-2.2-1.2-4.4-2.5-6.6-3.7.2-.6.3-1.3.5-1.9 1.8-6.4 3.4-13 4.8-19.7.2-1.2.5-2.3.7-3.5 1.4-7.1 2.7-14.2 3.8-21.5v-.2c1.1-7.3 1.9-14.8 2.5-22.3.1-1.2.2-2.5.3-3.7.6-7.2.9-14.5 1.1-21.8 0-.6.1-1.2.1-1.8h86.8c-2.2 48.3-21.2 93.2-54.2 128.4zm-32.6-146.5c0-.6-.1-1.2-.1-1.8-.2-7.3-.6-14.6-1.1-21.9-.1-1.2-.2-2.4-.3-3.7-.7-7.5-1.5-15-2.5-22.4-1.1-7.4-2.4-14.6-3.8-21.8-.2-1.1-.4-2.2-.7-3.2-1.5-6.8-3.1-13.5-4.9-20-.1-.5-.3-1.1-.4-1.7 2.2-1.1 4.3-2.4 6.5-3.6 1.4-.8 2.8-1.5 4.2-2.3 4.8-2.8 9.5-5.8 14.1-8.9.5-.4 1-.8 1.5-1.1 4-2.8 7.9-5.8 11.7-8.9l3.9-3.3c1.5-1.3 3.1-2.5 4.5-3.8 33.1 35.2 52 80.2 54.2 128.3h-86.8zm19.3-141.2c-1.2 1-2.3 2.1-3.5 3.2-1 .9-2.1 1.8-3.1 2.6-3.8 3.1-7.8 6.1-11.9 9-.2.2-.5.3-.7.4-3.9 2.7-7.9 5.2-12 7.6-1.2.7-2.5 1.4-3.8 2.1-1.3.7-2.6 1.3-3.8 2l-.3-.9c-.6-1.6-1.1-3.1-1.7-4.6-.8-2.2-1.7-4.5-2.5-6.6-.6-1.6-1.3-3.1-2-4.7-.9-2-1.7-4-2.6-5.9-.7-1.5-1.4-3-2.2-4.5-.9-1.8-1.8-3.7-2.7-5.4-.8-1.5-1.5-2.9-2.3-4.3-.9-1.7-1.9-3.4-2.9-5-.8-1.4-1.6-2.7-2.5-4-1-1.6-2-3.1-3-4.6-.9-1.3-1.7-2.5-2.6-3.7-1-1.5-2.1-2.9-3.2-4.2-.9-1.2-1.8-2.3-2.7-3.4-1.1-1.3-2.2-2.6-3.3-3.8-.9-1.1-1.9-2.1-2.8-3.1-.4-.4-.8-.9-1.2-1.3 29.2 7.8 56.3 22.6 79.3 43.1zM164 27c-1 1-1.9 2.1-2.9 3.2-1.1 1.2-2.1 2.4-3.1 3.7-1 1.2-1.9 2.4-2.9 3.6-1 1.3-2 2.6-2.9 4-.9 1.3-1.9 2.6-2.8 4-.9 1.4-1.9 2.8-2.8 4.3-.9 1.4-1.8 2.9-2.7 4.3-.9 1.5-1.8 3.1-2.7 4.7-.8 1.5-1.7 3-2.5 4.6-.9 1.7-1.7 3.4-2.6 5.2-.8 1.6-1.5 3.1-2.3 4.8-.9 1.9-1.7 3.8-2.5 5.8-.7 1.6-1.4 3.2-2 4.8-.9 2.1-1.7 4.4-2.5 6.6-.6 1.5-1.2 3-1.7 4.6l-.3.9c-1.3-.7-2.7-1.3-4-2.1-1.2-.7-2.4-1.3-3.5-2-4.2-2.5-8.3-5-12.3-7.8-.1-.1-.3-.2-.5-.3-4.1-2.8-8-5.9-11.9-9-1.1-.9-2.1-1.7-3.1-2.6-1.2-1-2.3-2.1-3.5-3.2 23-20.5 50-35.3 79.2-43.4-.4.4-.8.9-1.2 1.3zM72.7 82c1.4 1.3 3 2.5 4.4 3.7 1.3 1.1 2.7 2.3 4 3.4 3.7 3 7.5 5.9 11.4 8.6.6.4 1.2.9 1.8 1.3 4.5 3.1 9.2 6.1 14 8.9 1.4.8 2.8 1.5 4.1 2.3 2.2 1.2 4.3 2.5 6.5 3.6-.2.6-.3 1.1-.4 1.7-1.8 6.5-3.4 13.2-4.9 20-.2 1.1-.4 2.2-.7 3.3-1.4 7.1-2.8 14.3-3.8 21.7v.1c-1.1 7.3-1.9 14.8-2.5 22.3-.1 1.2-.2 2.5-.3 3.7-.6 7.2-.9 14.5-1.1 21.8 0 .6-.1 1.2-.1 1.8H18.5c2.1-48 21.1-93 54.2-128.2zm32.5 146.6c0 .6.1 1.2.1 1.8.2 7.3.6 14.6 1.1 21.8.1 1.3.2 2.5.3 3.7.7 7.5 1.5 15 2.5 22.3v.1c1.1 7.4 2.4 14.6 3.8 21.7.2 1.1.4 2.2.7 3.3 1.5 6.8 3.1 13.5 4.9 20 .2.5.3 1.1.4 1.7-2.2 1.1-4.4 2.4-6.5 3.6-1.4.8-2.8 1.5-4.2 2.3-4.8 2.8-9.5 5.7-14 8.9-.6.4-1.2.9-1.8 1.3-3.9 2.8-7.7 5.6-11.4 8.6-1.4 1.1-2.7 2.3-4.1 3.4-1.5 1.2-3 2.4-4.4 3.7-33.1-35.2-52.1-80.2-54.2-128.3h86.8z" fill="#343a40"/>
</svg>