<?xml version="1.0" encoding="utf-8"?>
<!-- Generator: Adobe Illustrator 27.8.1, SVG Export Plug-In . SVG Version: 6.00 Build 0)  -->
<svg version="1.1" id="Ebene_1" xmlns="http://www.w3.org/2000/svg" xmlns:xlink="http://www.w3.org/1999/xlink" x="0px" y="0px"
	 viewBox="0 0 57 56" style="enable-background:new 0 0 57 56;" xml:space="preserve">
<style type="text/css">
	.st0{filter:url(#Adobe_OpacityMaskFilter);}
	.st1{fill-rule:evenodd;clip-rule:evenodd;fill:#FFFFFF;}
	.st2{mask:url(#b_00000045584065805445637030000005704530071204380833_);fill-rule:evenodd;clip-rule:evenodd;fill:#FFFFFF;}
	.st3{filter:url(#Adobe_OpacityMaskFilter_00000152241387577699891000000017082530184457986465_);}
	.st4{mask:url(#d_00000166670925241056279990000013982409116774415497_);fill-rule:evenodd;clip-rule:evenodd;fill:#FFFFFF;}
</style>
<g>
	<g transform="translate(0 15.613)">
		<defs>
			<filter id="Adobe_OpacityMaskFilter" filterUnits="userSpaceOnUse" x="0" y="0" width="56.7" height="26.4">
				<feColorMatrix  type="matrix" values="1 0 0 0 0  0 1 0 0 0  0 0 1 0 0  0 0 0 1 0"/>
			</filter>
		</defs>
		
			<mask maskUnits="userSpaceOnUse" x="0" y="0" width="56.7" height="26.4" id="b_00000045584065805445637030000005704530071204380833_">
			<g class="st0">
				<path id="a_00000008108301828553246100000001039763405173058696_" class="st1" d="M0,0h56.7v26.4H0V0z"/>
			</g>
		</mask>
		<path class="st2" d="M8.1,0C2.9,0,0,5.4,0,13.2c0,7.8,2.6,13.2,7.7,13.2c4.6,0,8-3.8,8-13.5C15.7,5.9,13.6,0,8.1,0z M7.9,3.6
			c2.8,0,3.5,4.8,3.5,9.5c0,5.2-0.8,9.8-3.5,9.8c-2.6,0-3.7-4-3.7-9.6C4.3,7.8,5.3,3.6,7.9,3.6L7.9,3.6z M17.4,26.1h13.1v-3.6h-8.2
			v-0.1l8.2-19.2V0.3H18.1v3.6h7.8v0.1l-8.5,19.7V26.1z M55.9,10.9h-6.1V3.9h6.5V0.3H45.6v25.8h11.1v-3.6h-7v-8.2h6.2
			C55.9,14.4,55.9,10.9,55.9,10.9z"/>
	</g>
	<path class="st1" d="M38,21.4c1.7,0,3.1-1.4,3.1-3.1c0-1.7-1.4-3.1-3.1-3.1c-1.7,0-3.1,1.4-3.1,3.1c0,0,0,0,0,0
		C34.9,20,36.3,21.4,38,21.4 M38,40.8c1.7,0,3.1-1.4,3.1-3.1c0-1.7-1.4-3.1-3.1-3.1c-1.7,0-3.1,1.4-3.1,3.1c0,0,0,0,0,0
		C34.9,39.4,36.3,40.8,38,40.8"/>
	<path class="st1" d="M37.8,49.5c1.6,0,2.9-1.3,2.9-2.9c0-1.6-1.3-2.9-2.9-2.9c-1.6,0-2.9,1.3-2.9,2.9
		C34.9,48.2,36.2,49.5,37.8,49.5"/>
	<g transform="translate(36.131)">
		<defs>
			
				<filter id="Adobe_OpacityMaskFilter_00000135677531642946860680000005955397101011366330_" filterUnits="userSpaceOnUse" x="0.1" y="0" width="3.6" height="3.7">
				<feColorMatrix  type="matrix" values="1 0 0 0 0  0 1 0 0 0  0 0 1 0 0  0 0 0 1 0"/>
			</filter>
		</defs>
		
			<mask maskUnits="userSpaceOnUse" x="0.1" y="0" width="3.6" height="3.7" id="d_00000166670925241056279990000013982409116774415497_">
			<g style="filter:url(#Adobe_OpacityMaskFilter_00000135677531642946860680000005955397101011366330_);">
				<path id="c_00000082327611744796263960000008150588811786253716_" class="st1" d="M0.1,0h3.6v3.7H0.1V0z"/>
			</g>
		</mask>
		<path class="st4" d="M1.9,3.7c1,0,1.8-0.8,1.8-1.8c0-1-0.8-1.8-1.8-1.8c-1,0-1.8,0.8-1.8,1.8C0.1,2.9,0.9,3.7,1.9,3.7"/>
	</g>
	<path class="st1" d="M37.9,56c1,0,1.8-0.8,1.8-1.8c0-1-0.8-1.8-1.8-1.8c-1,0-1.8,0.8-1.8,1.8C36.1,55.2,36.9,56,37.9,56"/>
	<path class="st1" d="M37.8,12.3c1.6,0,2.9-1.3,2.9-2.9c0-1.6-1.3-2.9-2.9-2.9c-1.6,0-2.9,1.3-2.9,2.9C34.9,11,36.2,12.3,37.8,12.3"
		/>
	<path class="st1" d="M37.9,31.6c2,0,3.7-1.6,3.7-3.6c0-2-1.6-3.6-3.7-3.6c0,0,0,0,0,0c-2,0-3.7,1.6-3.7,3.6
		C34.3,30,35.9,31.6,37.9,31.6"/>
</g>
</svg>
