<?xml version="1.0" encoding="UTF-8"?>
<svg width="157px" height="80px" viewBox="0 0 157 80" version="1.1" xmlns="http://www.w3.org/2000/svg" xmlns:xlink="http://www.w3.org/1999/xlink">
    <!-- Generator: Sketch 63.1 (92452) - https://sketch.com -->
    <title>Logo</title>
    <desc>Created with Sketch.</desc>
    <g id="Unterseiten" stroke="none" stroke-width="1" fill="none" fill-rule="evenodd">
        <g id="Desktop-Unterseite" transform="translate(-124.000000, -1076.000000)" fill="#FEFEFE">
            <g id="Footer" transform="translate(0.000000, 1052.000000)">
                <g id="Logo" transform="translate(124.000000, 24.000000)">
                    <path d="M11.5078164,22.2251139 C4.14502284,22.2251139 2.02580645e-05,29.9678987 2.02580645e-05,40.9817722 C2.02580645e-05,52.0505316 3.65416994,59.8475949 10.9622667,59.8475949 C17.4523428,59.8475949 22.3063777,54.395038 22.3063777,40.5453165 C22.3063777,30.6763544 19.2522719,22.2251139 11.5078164,22.2251139 L11.5078164,22.2251139 Z M11.2351428,27.2958987 C15.1619661,27.2958987 16.2526603,34.1661772 16.2526603,40.8181266 C16.2526603,48.1789367 15.0525725,54.7766076 11.2894345,54.7766076 C7.58099316,54.7766076 6.05394026,49.0516456 6.05394026,41.0362532 C6.05394026,33.3481519 7.58099316,27.2958987 11.2351428,27.2958987 L11.2351428,27.2958987 Z M24.6512486,59.4113418 L43.194468,59.4113418 L43.194468,54.3403544 L31.5776835,54.3403544 L31.5776835,54.1769114 L43.2491648,26.8596456 L43.2491648,22.6611646 L25.6876512,22.6611646 L25.6876512,27.7321519 L36.7043919,27.7321519 L36.7043919,27.8411139 L24.6512486,55.9764051 L24.6512486,59.4113418 Z M79.3385015,37.8192405 L70.6125428,37.8192405 L70.6125428,27.7321519 L79.8838486,27.7321519 L79.8838486,22.6611646 L64.7765996,22.6611646 L64.7765996,59.4113418 L80.5387919,59.4113418 L80.5387919,54.3403544 L70.6125428,54.3403544 L70.6125428,42.6723038 L79.3385015,42.6723038 L79.3385015,37.8192405 Z" id="Fill-1"></path>
                    <path d="M53.7917857,30.6664709 C56.2531405,30.6664709 58.2483573,28.6715342 58.2483573,26.2109772 C58.2483573,23.7502177 56.2531405,21.755281 53.7917857,21.755281 C51.3306334,21.755281 49.3354166,23.7502177 49.3354166,26.2109772 C49.3354166,28.6715342 51.3306334,30.6664709 53.7917857,30.6664709" id="Fill-3"></path>
                    <path d="M53.7917857,58.3546734 C56.2531405,58.3546734 58.2483573,56.3597367 58.2483573,53.8993823 C58.2483573,51.4384203 56.2531405,49.4434835 53.7917857,49.4434835 C51.3306334,49.4434835 49.3354166,51.4384203 49.3354166,53.8993823 C49.3354166,56.3597367 51.3306334,58.3546734 53.7917857,58.3546734" id="Fill-5"></path>
                    <path d="M53.7917857,70.7710177 C56.0619044,70.7710177 57.9023495,68.9312203 57.9023495,66.6616506 C57.9023495,64.392081 56.0619044,62.5524861 53.7917857,62.5524861 C51.5218695,62.5524861 49.6812218,64.392081 49.6812218,66.6616506 C49.6812218,68.9312203 51.5218695,70.7710177 53.7917857,70.7710177" id="Fill-7"></path>
                    <path d="M53.7746676,5.33429873 C55.2085334,5.33429873 56.3707386,4.14017215 56.3707386,2.66736203 C56.3707386,1.19434937 55.2085334,2.02531646e-05 53.7746676,2.02531646e-05 C52.3405992,2.02531646e-05 51.1783941,1.19434937 51.1783941,2.66736203 C51.1783941,4.14017215 52.3405992,5.33429873 53.7746676,5.33429873" id="Fill-9"></path>
                    <path d="M53.7746676,79.9432709 C55.2085334,79.9432709 56.3707386,78.7817519 56.3707386,77.3480304 C56.3707386,75.9141063 55.2085334,74.7523848 53.7746676,74.7523848 C52.3405992,74.7523848 51.1783941,75.9141063 51.1783941,77.3480304 C51.1783941,78.7817519 52.3405992,79.9432709 53.7746676,79.9432709" id="Fill-11"></path>
                    <path d="M53.7917857,17.5346633 C56.0619044,17.5346633 57.9023495,15.6948658 57.9023495,13.4250937 C57.9023495,11.1555241 56.0619044,9.31592911 53.7917857,9.31592911 C51.5218695,9.31592911 49.6812218,11.1555241 49.6812218,13.4250937 C49.6812218,15.6948658 51.5218695,17.5346633 53.7917857,17.5346633" id="Fill-13"></path>
                    <path d="M53.7917857,45.2460962 C56.6593147,45.2460962 58.9839276,42.921843 58.9839276,40.0548051 C58.9839276,37.1881722 56.6593147,34.863919 53.7917857,34.863919 C50.9244592,34.863919 48.5996437,37.1881722 48.5996437,40.0548051 C48.5996437,42.921843 50.9244592,45.2460962 53.7917857,45.2460962" id="Fill-15"></path>
                    <path d="M88.0902285,59.3973873 L92.7570788,59.3973873 L92.7570788,58.1210329 L89.8336375,58.1210329 L89.8336375,58.079919 L92.7706517,51.2043747 L92.7706517,50.1475646 L88.3507472,50.1475646 L88.3507472,51.423919 L91.1240763,51.423919 L91.1240763,51.4514633 L88.0902285,58.5327797 L88.0902285,59.3973873 Z M97.9873059,56.4469063 C98.0014866,56.2686785 98.028835,56.0489316 98.028835,55.6647291 C98.028835,53.8806278 97.3147382,52.6042734 95.9149059,52.6042734 C94.4867124,52.6042734 93.4164788,53.9494886 93.4164788,56.1585013 C93.4164788,58.2308051 94.3495653,59.4800203 96.0656259,59.4800203 C96.6832943,59.4800203 97.3285137,59.3562734 97.7405627,59.1644759 L97.5345382,58.1074633 C97.2324905,58.2447797 96.8208466,58.3547544 96.3407305,58.3547544 C95.5575537,58.3547544 94.857435,57.9430076 94.8440646,56.4469063 L97.9873059,56.4469063 Z M94.857435,55.4038684 C94.8849859,54.6218937 95.1738659,53.7021975 95.8047021,53.7021975 C96.3265498,53.7021975 96.6832943,54.3336911 96.6697214,55.4038684 L94.857435,55.4038684 Z M99.2230479,59.3973873 L100.69196,59.3973873 L100.69196,55.2665519 C100.69196,55.0196658 100.719511,54.8001215 100.760432,54.6630076 C100.897579,54.1137418 101.227381,53.8395139 101.58372,53.8395139 C102.229142,53.8395139 102.366492,54.4981468 102.366492,55.1569823 L102.366492,59.3973873 L103.835404,59.3973873 L103.835404,55.0196658 C103.835404,53.4690835 103.245084,52.6042734 102.119343,52.6042734 C101.419427,52.6042734 100.856456,52.9611342 100.54043,53.4964253 L100.512879,53.4964253 L100.444609,52.7142481 L99.1681485,52.7142481 C99.1952943,53.3042228 99.2230479,53.8395139 99.2230479,54.5939443 L99.2230479,59.3973873 Z M105.551262,51.5612354 L105.551262,52.7142481 L104.75512,52.7142481 L104.75512,53.7844253 L105.551262,53.7844253 L105.551262,57.2568304 C105.551262,58.2447797 105.71596,58.7387544 106.044951,59.0680709 C106.333831,59.3562734 106.75925,59.4800203 107.225591,59.4800203 C107.637438,59.4800203 107.967239,59.4385013 108.186836,59.3700456 L108.159285,58.2308051 C108.007755,58.2587544 107.87081,58.2723241 107.706112,58.2723241 C107.335187,58.2723241 107.019769,58.0661468 107.019769,57.2428557 L107.019769,53.7844253 L108.31041,53.7844253 L108.31041,52.7142481 L107.019769,52.7142481 L107.019769,51.0534886 L105.551262,51.5612354 Z M109.325745,59.3973873 L110.794657,59.3973873 L110.794657,55.8707038 C110.794657,55.6096405 110.808432,55.3900962 110.849556,55.225438 C111.000884,54.4981468 111.522327,54.0726278 112.030196,54.0726278 C112.153568,54.0726278 112.249996,54.0726278 112.332447,54.1001722 L112.332447,52.6318177 C112.249996,52.617843 112.167343,52.6042734 112.030196,52.6042734 C111.481203,52.6042734 110.931804,53.043362 110.671488,53.7295392 L110.630364,53.7295392 L110.547509,52.7142481 L109.271048,52.7142481 C109.284621,53.2906532 109.325745,53.9764253 109.325745,54.5939443 L109.325745,59.3973873 Z M117.712989,52.7142481 L116.244684,52.7142481 L116.244684,57.0508557 C116.244684,57.2704 116.217133,57.4763747 116.162234,57.6272608 C116.093154,57.887919 115.860186,58.2860962 115.420991,58.2860962 C114.816693,58.2860962 114.638625,57.6132861 114.638625,56.6664506 L114.638625,52.7142481 L113.183285,52.7142481 L113.183285,56.8446785 C113.183285,58.5876658 113.663401,59.5075646 114.885368,59.5075646 C115.599262,59.5075646 116.120907,59.0956152 116.381426,58.6976405 L116.408977,58.6976405 L116.505,59.3973873 L117.76809,59.3973873 C117.740337,58.834957 117.712989,58.1761215 117.712989,57.4624 L117.712989,52.7142481 Z M119.223025,59.3973873 L120.677959,59.3973873 L120.677959,55.1705519 C120.677959,54.9785519 120.70551,54.7859443 120.746634,54.6492354 C120.870208,54.1001722 121.213582,53.8257418 121.556349,53.8257418 C122.215749,53.8257418 122.297591,54.5254886 122.297591,55.129438 L122.297591,59.3973873 L123.766706,59.3973873 L123.766706,55.1434127 C123.766706,54.9372354 123.780481,54.7452354 123.808032,54.607919 C123.944774,54.1137418 124.247025,53.8257418 124.618152,53.8257418 C125.276742,53.8257418 125.386743,54.5392608 125.386743,55.3489823 L125.386743,59.3973873 L126.841475,59.3973873 L126.841475,55.0745519 C126.841475,53.4277671 126.223807,52.6042734 125.166741,52.6042734 C124.823772,52.6042734 124.507949,52.6865013 124.233654,52.8511595 C123.972325,53.0158177 123.739358,53.2766785 123.560681,53.5646785 L123.53313,53.5646785 C123.29996,52.9335899 122.79209,52.6042734 122.105747,52.6042734 C121.405831,52.6042734 120.870208,53.0022481 120.55479,53.5101975 L120.527239,53.5101975 L120.444991,52.7142481 L119.168125,52.7142481 C119.195474,53.3042228 119.223025,53.8395139 119.223025,54.5939443 L119.223025,59.3973873 Z M136.216705,53.9628557 L134.021136,53.9628557 L134.021136,51.423919 L136.354662,51.423919 L136.354662,50.1475646 L132.552021,50.1475646 L132.552021,59.3973873 L136.51936,59.3973873 L136.51936,58.1210329 L134.021136,58.1210329 L134.021136,55.1843241 L136.216705,55.1843241 L136.216705,53.9628557 Z M137.315299,59.0956152 C137.61755,59.3289316 138.220835,59.4800203 138.74248,59.4800203 C140.005976,59.4800203 140.952838,58.7802734 140.952838,57.4212861 C140.952838,56.5979949 140.486092,55.939362 139.594129,55.4038684 C138.948505,54.9923241 138.784414,54.7859443 138.784414,54.4292861 C138.784414,54.0588557 139.031158,53.7295392 139.53923,53.7295392 C139.895772,53.7295392 140.198022,53.8530835 140.458743,54.0177418 L140.760994,52.9335899 C140.431192,52.7551595 140.019954,52.6042734 139.470555,52.6042734 C138.276342,52.6042734 137.424693,53.4551089 137.424693,54.607919 C137.424693,55.2803241 137.795618,55.9253873 138.784414,56.515362 C139.401272,56.9133367 139.594129,57.1877671 139.594129,57.5997165 C139.594129,58.079919 139.278103,58.3683241 138.756458,58.3683241 C138.317669,58.3683241 137.850518,58.1761215 137.603774,58.0112608 L137.315299,59.0956152 Z M141.680305,59.0956152 C141.982555,59.3289316 142.586043,59.4800203 143.107688,59.4800203 C144.371183,59.4800203 145.317843,58.7802734 145.317843,57.4212861 C145.317843,56.5979949 144.851097,55.939362 143.959134,55.4038684 C143.314118,54.9923241 143.149419,54.7859443 143.149419,54.4292861 C143.149419,54.0588557 143.396365,53.7295392 143.904438,53.7295392 C144.260777,53.7295392 144.56323,53.8530835 144.823749,54.0177418 L145.125999,52.9335899 C144.7964,52.7551595 144.384959,52.6042734 143.835763,52.6042734 C142.641347,52.6042734 141.789901,53.4551089 141.789901,54.607919 C141.789901,55.2803241 142.160826,55.9253873 143.149419,56.515362 C143.76648,56.9133367 143.959134,57.1877671 143.959134,57.5997165 C143.959134,58.079919 143.643919,58.3683241 143.122071,58.3683241 C142.682471,58.3683241 142.215725,58.1761215 141.968982,58.0112608 L141.680305,59.0956152 Z M150.754094,56.4469063 C150.76787,56.2686785 150.795218,56.0489316 150.795218,55.6647291 C150.795218,53.8806278 150.081324,52.6042734 148.681492,52.6042734 C147.253501,52.6042734 146.182659,53.9494886 146.182659,56.1585013 C146.182659,58.2308051 147.116354,59.4800203 148.832414,59.4800203 C149.450083,59.4800203 150.095099,59.3562734 150.506541,59.1644759 L150.300921,58.1074633 C149.999279,58.2447797 149.58723,58.3547544 149.106506,58.3547544 C148.324342,58.3547544 147.624426,57.9430076 147.610853,56.4469063 L150.754094,56.4469063 Z M147.624426,55.4038684 C147.651977,54.6218937 147.939844,53.7021975 148.571085,53.7021975 C149.092933,53.7021975 149.450083,54.3336911 149.436307,55.4038684 L147.624426,55.4038684 Z M151.989634,59.3973873 L153.457938,59.3973873 L153.457938,55.2665519 C153.457938,55.0196658 153.485489,54.8001215 153.527221,54.6630076 C153.66376,54.1137418 153.993359,53.8395139 154.350711,53.8395139 C154.995728,53.8395139 155.132875,54.4981468 155.132875,55.1569823 L155.132875,59.3973873 L156.601382,59.3973873 L156.601382,55.0196658 C156.601382,53.4690835 156.011467,52.6042734 154.885524,52.6042734 C154.185405,52.6042734 153.623041,52.9611342 153.307218,53.4964253 L153.279667,53.4964253 L153.211195,52.7142481 L151.934532,52.7142481 C151.962083,53.3042228 151.989634,53.8395139 151.989634,54.5939443 L151.989634,59.3973873 Z" id="Fill-17"></path>
                    <path d="M90.9485199,35.9602835 C89.0955147,35.9602835 88.0522244,37.9088405 88.0522244,40.6810937 C88.0522244,43.4667139 88.9719405,45.4296506 90.8115754,45.4296506 C92.4447805,45.4296506 93.6663418,44.0570937 93.6663418,40.5715241 C93.6663418,38.0874734 92.8977508,35.9602835 90.9485199,35.9602835 L90.9485199,35.9602835 Z M90.8802502,37.2364354 C91.8686412,37.2364354 92.1429354,38.9658532 92.1429354,40.6399797 C92.1429354,42.4927392 91.8408876,44.1532962 90.8936205,44.1532962 C89.9601289,44.1532962 89.5758334,42.7122835 89.5758334,40.6946633 C89.5758334,38.7598785 89.9601289,37.2364354 90.8802502,37.2364354 L90.8802502,37.2364354 Z M94.778307,45.320081 L96.2468141,45.320081 L96.2468141,41.7929924 C96.2468141,41.5319291 96.2605895,41.3123848 96.3021186,41.1473215 C96.4532437,40.4202329 96.9744837,39.9949165 97.4823534,39.9949165 C97.6063328,39.9949165 97.702356,39.9949165 97.7846037,40.0224608 L97.7846037,38.5543089 C97.702356,38.5401316 97.6201083,38.5263595 97.4823534,38.5263595 C96.9331573,38.5263595 96.3847715,38.9658532 96.1234425,39.6518278 L96.0825212,39.6518278 L96.0002734,38.6361316 L94.7236102,38.6361316 C94.7371831,39.2125367 94.778307,39.8987139 94.778307,40.516638 L94.778307,45.320081 Z M99.061267,37.4833215 L99.061267,38.6361316 L98.265125,38.6361316 L98.265125,39.7067139 L99.061267,39.7067139 L99.061267,43.1787139 C99.061267,44.1670684 99.2257625,44.6608405 99.5555637,44.9907646 C99.8434308,45.278562 100.269255,45.4023089 100.736001,45.4023089 C101.147848,45.4023089 101.477244,45.3611949 101.696639,45.2921316 L101.669088,44.1532962 C101.518368,44.1808405 101.380815,44.1946127 101.216117,44.1946127 C100.845395,44.1946127 100.529774,43.988638 100.529774,43.1649418 L100.529774,39.7067139 L101.820415,39.7067139 L101.820415,38.6361316 L100.529774,38.6361316 L100.529774,36.9753722 L99.061267,37.4833215 Z M102.657884,45.320081 L104.126391,45.320081 L104.126391,41.092638 C104.126391,40.9281823 104.153739,40.7082329 104.181088,40.5850937 C104.332618,40.0224608 104.648036,39.7616 105.032534,39.7616 C105.649797,39.7616 105.801125,40.4202329 105.801125,41.1473215 L105.801125,45.320081 L107.269632,45.320081 L107.269632,41.092638 C107.269632,39.4045367 106.679717,38.5263595 105.622449,38.5263595 C105.265704,38.5263595 104.977432,38.6223595 104.730284,38.7736506 C104.510686,38.9109671 104.305067,39.1165367 104.153739,39.3500557 L104.126391,39.3500557 L104.126391,35.8227646 L102.657884,35.8227646 L102.657884,45.320081 Z M110.75645,38.5263595 C109.507135,38.5263595 108.312922,39.5831696 108.312922,41.9983595 C108.312922,44.2490937 109.287538,45.4296506 110.701551,45.4296506 C111.717493,45.4296506 113.103752,44.6608405 113.103752,41.9572456 C113.103752,39.7616 112.156485,38.5263595 110.75645,38.5263595 L110.75645,38.5263595 Z M110.728899,39.6656 C111.48412,39.6656 111.648615,40.997043 111.648615,41.9710177 C111.648615,42.9731443 111.48412,44.3039797 110.75645,44.3039797 C109.974084,44.3039797 109.781632,43.0962835 109.781632,41.9710177 C109.781632,40.997043 109.932555,39.6656 110.728899,39.6656 L110.728899,39.6656 Z M114.160615,47.9548152 L115.615955,47.9548152 L115.615955,44.7294987 L115.643303,44.7294987 C115.835552,45.0723848 116.191891,45.4296506 116.782414,45.4296506 C117.866828,45.4296506 118.896141,44.3864101 118.896141,41.9710177 C118.896141,39.9675747 118.224181,38.5263595 116.891808,38.5263595 C116.316073,38.5263595 115.808001,38.8283342 115.491975,39.4458532 L115.464627,39.4458532 L115.382177,38.6361316 L114.105716,38.6361316 C114.119491,39.1987646 114.160615,39.8438278 114.160615,40.7357772 L114.160615,47.9548152 Z M115.615955,41.1201823 C115.615955,40.9419544 115.62973,40.7768911 115.670044,40.6260051 C115.752697,40.1873215 116.082093,39.7755747 116.453018,39.7755747 C117.125788,39.7755747 117.441409,40.6673215 117.441409,41.9845873 C117.441409,43.1649418 117.180485,44.2219544 116.439242,44.2219544 C116.205667,44.2219544 115.862901,44.0844354 115.684022,43.4397772 C115.643303,43.2888911 115.615955,43.0827139 115.615955,42.8767392 L115.615955,41.1201823 Z M120.845574,37.5932962 C121.257218,37.5932962 121.559468,37.2775494 121.559468,36.8384608 C121.559468,36.3856 121.257218,36.0836253 120.845574,36.0836253 C120.447301,36.0836253 120.118107,36.3991696 120.118107,36.8384608 C120.118107,37.2775494 120.447301,37.5932962 120.832001,37.5932962 L120.845574,37.5932962 Z M123.15155,37.5932962 C123.563396,37.5932962 123.865646,37.2775494 123.865646,36.8384608 C123.865646,36.3856 123.549621,36.0836253 123.15155,36.0836253 C122.753479,36.0836253 122.42388,36.3991696 122.42388,36.8384608 C122.42388,37.2775494 122.740108,37.5932962 123.137774,37.5932962 L123.15155,37.5932962 Z M124.030142,41.1337519 C124.030142,39.7067139 123.590744,38.5263595 121.861719,38.5263595 C121.051396,38.5263595 120.35148,38.8007899 120.021679,39.006562 L120.296581,40.0086886 C120.667506,39.7755747 121.065171,39.6382582 121.54549,39.6382582 C122.27316,39.6382582 122.547859,40.1324354 122.547859,40.8184101 L122.547859,40.997043 C121.037621,41.0106127 119.582686,41.7379038 119.582686,43.4533468 C119.582686,44.6201316 120.310356,45.4296506 121.271196,45.4296506 C121.847943,45.4296506 122.341632,45.1550177 122.685209,44.6334987 L122.712355,44.6334987 L122.794805,45.320081 L124.112592,45.320081 C124.043917,44.8805873 124.030142,44.3179544 124.030142,43.796638 L124.030142,41.1337519 Z M122.589186,43.2198278 C122.589186,43.3435747 122.57541,43.4667139 122.547859,43.5629165 C122.42388,44.0844354 122.067338,44.3315241 121.710188,44.3315241 C121.381197,44.3315241 120.982924,44.0570937 120.982924,43.3024608 C120.982924,42.1358785 122.012236,41.9845873 122.589186,41.9710177 L122.589186,43.2198278 Z M128.381574,35.8227646 L128.381574,39.2540557 L128.354226,39.2540557 C128.134831,38.7872203 127.736557,38.5263595 127.187361,38.5263595 C126.102947,38.5263595 125.087208,39.6518278 125.087208,41.9983595 C125.087208,44.0157772 125.814675,45.4296506 127.118889,45.4296506 C127.763906,45.4296506 128.271978,45.0043342 128.505148,44.5239291 L128.546677,44.5239291 L128.629128,45.320081 L129.891408,45.320081 C129.864464,44.8119291 129.837116,44.0570937 129.837116,43.5080304 L129.837116,35.8227646 L128.381574,35.8227646 Z M128.381574,42.9595747 C128.381574,43.1238278 128.367799,43.2749165 128.326675,43.3984608 C128.148606,44.0708658 127.805232,44.2219544 127.53033,44.2219544 C126.913067,44.2219544 126.55612,43.3571443 126.55612,42.0121316 C126.55612,40.8184101 126.816841,39.7755747 127.557881,39.7755747 C127.997076,39.7755747 128.299326,40.2418025 128.354226,40.7768911 C128.381574,40.9144101 128.381574,41.0652962 128.381574,41.1888405 L128.381574,42.9595747 Z M131.140317,45.3196759 L132.609635,45.3196759 L132.609635,38.6361316 L131.140317,38.6361316 L131.140317,45.3196759 Z M131.868392,36.0425114 C131.428995,36.0425114 131.072048,36.3718278 131.085621,36.8933468 C131.072048,37.3873215 131.415422,37.7306127 131.840436,37.7306127 C132.32116,37.7306127 132.664534,37.3873215 132.650759,36.8933468 C132.650759,36.3718278 132.32116,36.0425114 131.868392,36.0425114 L131.868392,36.0425114 Z M133.51517,45.0179038 C133.817623,45.2510177 134.421111,45.4023089 134.942756,45.4023089 C136.206251,45.4023089 137.152911,44.7019544 137.152911,43.3435747 C137.152911,42.520081 136.685962,41.8614481 135.794202,41.3263595 C135.148375,40.9144101 134.984488,40.7082329 134.984488,40.3517772 C134.984488,39.9813468 135.231433,39.6518278 135.739506,39.6518278 C136.095845,39.6518278 136.398298,39.7755747 136.658817,39.9400304 L136.961067,38.8556759 C136.631468,38.6772456 136.220027,38.5263595 135.670223,38.5263595 C134.476415,38.5263595 133.624969,39.3773975 133.624969,40.5302076 C133.624969,41.2026127 133.995894,41.8476759 134.984488,42.4376506 C135.601548,42.8356253 135.794202,43.1102582 135.794202,43.5218025 C135.794202,44.0022076 135.478177,44.2904101 134.956329,44.2904101 C134.517539,44.2904101 134.050793,44.0986127 133.80405,43.9335494 L133.51517,45.0179038 Z M141.463219,44.0433215 C141.2576,44.1532962 141.024024,44.1946127 140.749528,44.1946127 C139.857565,44.1946127 139.307964,43.371119 139.307964,41.9983595 C139.307964,40.7768911 139.802058,39.7478278 140.749528,39.7478278 C141.079329,39.7478278 141.312499,39.8438278 141.463219,39.8987139 L141.682614,38.7325367 C141.504546,38.6361316 141.119642,38.5401316 140.721977,38.5401316 C138.951422,38.5401316 137.839457,40.0360304 137.839457,42.0261063 C137.839457,44.2219544 138.896522,45.4023089 140.488401,45.4023089 C140.982698,45.4023089 141.408522,45.2921316 141.614142,45.182562 L141.463219,44.0433215 Z M142.355182,45.320081 L143.823891,45.320081 L143.823891,41.092638 C143.823891,40.9281823 143.851848,40.7082329 143.879196,40.5850937 C144.030119,40.0224608 144.346144,39.7616 144.730035,39.7616 C145.347906,39.7616 145.498626,40.4202329 145.498626,41.1473215 L145.498626,45.320081 L146.967943,45.320081 L146.967943,41.092638 C146.967943,39.4045367 146.377421,38.5263595 145.320557,38.5263595 C144.963408,38.5263595 144.675135,38.6223595 144.428392,38.7736506 C144.20839,38.9109671 144.00277,39.1165367 143.851848,39.3500557 L143.823891,39.3500557 L143.823891,35.8227646 L142.355182,35.8227646 L142.355182,45.320081 Z M152.582061,42.3691949 C152.595836,42.1911696 152.623184,41.9710177 152.623184,41.5868152 C152.623184,39.8027139 151.909493,38.5263595 150.509053,38.5263595 C149.081467,38.5263595 148.010626,39.8713722 148.010626,42.0809924 C148.010626,44.1532962 148.944522,45.4023089 150.660381,45.4023089 C151.277644,45.4023089 151.923268,45.278562 152.335115,45.0863595 L152.12909,44.0297519 C151.827245,44.1670684 151.414993,44.2768405 150.934675,44.2768405 C150.152511,44.2768405 149.452392,43.8646886 149.438617,42.3691949 L152.582061,42.3691949 Z M149.452392,41.3263595 C149.479741,40.5439797 149.768013,39.6244861 150.399254,39.6244861 C150.921102,39.6244861 151.277644,40.2555747 151.263666,41.3263595 L149.452392,41.3263595 Z M153.241055,45.0179038 C153.543103,45.2510177 154.146793,45.4023089 154.668236,45.4023089 C155.931124,45.4023089 156.878796,44.7019544 156.878796,43.3435747 C156.878796,42.520081 156.411848,41.8614481 155.519682,41.3263595 C154.874261,40.9144101 154.70936,40.7082329 154.70936,40.3517772 C154.70936,39.9813468 154.956913,39.6518278 155.464986,39.6518278 C155.821325,39.6518278 156.123373,39.7755747 156.384499,39.9400304 L156.68675,38.8556759 C156.356948,38.6772456 155.944899,38.5263595 155.395906,38.5263595 C154.201288,38.5263595 153.350651,39.3773975 153.350651,40.5302076 C153.350651,41.2026127 153.721577,41.8476759 154.70936,42.4376506 C155.327231,42.8356253 155.519682,43.1102582 155.519682,43.5218025 C155.519682,44.0022076 155.203859,44.2904101 154.682011,44.2904101 C154.243222,44.2904101 153.776273,44.0986127 153.528922,43.9335494 L153.241055,45.0179038 Z" id="Fill-19"></path>
                </g>
            </g>
        </g>
    </g>
</svg>