<svg width="57" height="56" xmlns="http://www.w3.org/2000/svg" xmlns:xlink="http://www.w3.org/1999/xlink">
  <defs>
    <path id="a" d="M0 .002h56.745v26.405H0z"/>
    <path id="c" d="M.088.04h3.569v3.654H.088z"/>
  </defs>
  <g fill="none" fill-rule="evenodd">
    <g transform="translate(0 15.613)">
      <mask id="b" fill="#fff">
        <use xlink:href="#a"/>
      </mask>
      <path d="M8.108.002C2.92.002 0 5.436 0 13.166c0 7.769 2.575 13.241 7.724 13.241 4.572 0 7.992-3.827 7.992-13.547 0-6.926-2.152-12.858-7.608-12.858zm-.192 3.56c2.767 0 3.535 4.821 3.535 9.49 0 5.166-.845 9.796-3.497 9.796-2.613 0-3.689-4.018-3.689-9.643 0-5.396 1.076-9.644 3.65-9.644zM17.368 26.1h13.065v-3.56H22.25v-.114l8.223-19.172V.308H18.099v3.56h7.762v.076L17.368 23.69v2.41zM55.9 10.947h-6.148v-7.08h6.532V.308H45.64v25.793h11.106v-3.56H49.75v-8.188H55.9v-3.406z" fill="#3C3C3B" mask="url(#b)"/>
    </g>
    <path d="M38.01 21.442a3.128 3.128 0 003.133-3.122 3.128 3.128 0 00-3.132-3.123 3.128 3.128 0 00-3.133 3.123 3.128 3.128 0 003.133 3.122M38.01 40.803a3.128 3.128 0 003.133-3.122 3.128 3.128 0 00-3.132-3.123 3.128 3.128 0 00-3.133 3.123 3.128 3.128 0 003.133 3.122" fill="#3EA3DC"/>
    <path d="M37.802 49.546a2.92 2.92 0 002.924-2.914 2.92 2.92 0 00-2.924-2.915 2.92 2.92 0 00-2.924 2.915 2.92 2.92 0 002.924 2.914" fill="#86C2EB"/>
    <g transform="translate(36.131)">
      <mask id="d" fill="#fff">
        <use xlink:href="#c"/>
      </mask>
      <path d="M1.872 3.694c.986 0 1.785-.818 1.785-1.827 0-1.01-.8-1.828-1.785-1.828C.887.039.088.857.088 1.867c0 1.009.799 1.827 1.784 1.827" fill="#BCE4FA" mask="url(#d)"/>
    </g>
    <path d="M37.906 56c.98 0 1.775-.792 1.775-1.77 0-.977-.794-1.769-1.775-1.769-.98 0-1.775.792-1.775 1.77 0 .977.795 1.769 1.775 1.769" fill="#BCE4FA"/>
    <path d="M37.802 12.283a2.92 2.92 0 002.924-2.915 2.92 2.92 0 00-2.924-2.914 2.92 2.92 0 00-2.924 2.914 2.92 2.92 0 002.924 2.915" fill="#86C2EB"/>
    <path d="M37.906 31.643A3.65 3.65 0 0041.561 28a3.649 3.649 0 00-3.655-3.643A3.65 3.65 0 0034.251 28a3.65 3.65 0 003.655 3.643" fill="#0073A5"/>
  </g>
</svg>
