<svg version="1.1" id="Ebene_1" xmlns="http://www.w3.org/2000/svg" x="0" y="0" width="870" height="615" viewBox="0 0 870 615" xml:space="preserve">
  <path d="M651.8 389.6c1.3-4.1 2.3-8.3 3.1-12.5.9-4.3 3.7-7.3 6.2-10.6.6-.8 2-1.1 3.1-1.2 6.3-.9 12.3-3 17.8-6 7.3-3.9 12.8-9.6 14.9-17.8 1.9-7.4 2.8-15 2.4-22.7-1.1-18.2-2.4-36.4-3.7-54.7-.1-1.9-.1-3.5 1.5-4.9 2.2-1.9 2.5-4.3 1.8-7.2-.8-3.4-.8-6.9-1.4-10.3-.3-1.6-.7-3.2-1.5-4.6-5.2-9.4-10.5-18.9-15.8-28.2-1-1.8-1.7-3.5-1-5.6.8-2.5.4-5-1-7.2-1.6-2.5-3.5-4.7-4.9-7.3-3.1-5.9-5.8-11.9-8.9-17.8-2.8-5.5-5.8-10.8-8.8-16.2-.6-1-1.3-2.1-2.2-2.6-4-2.1-7.9-4.1-12.1-5.8-4.3-1.7-8.8-3-13.2-4.5-5.4-1.8-10.3-4.2-13.2-9.7-1.9-3.5-4.5-6.4-9.5-5.9-3 .3-3.5-.8-3.8-3.9-.7-7.3 1.8-14.1 3.3-21 .2-1 1.2-2.1 2.1-2.6 2.7-1.7 3.5-4.2 3.6-7.2.1-2.6.3-5.3.5-7.9.1-3.1.5-6.3.3-9.4-.3-4.1-1.6-8.3-1.3-12.3.5-6.5-2.8-10.8-7.4-14.1-2.6-1.8-4.9-3.2-5.1-6.7-.1-2-1.4-3.7-3.5-4.5-4.2-1.7-8.2-4.6-13.2-2.2-1.2.6-3 .1-4.4.2-1.3.1-2.7-.1-4 .3-9.3 2.7-16.5 8.2-21.6 16.5-2.3 3.7-4.5 7.3-4.6 11.9-.1 3.6-.7 7.2-1.1 10.8-.2 2-1 4.1-.4 5.9 1.3 4.2 1.7 8.4 2 12.7.2 2.6.4 5.3 2.6 7.3.6.6.8 1.8.9 2.8.4 4.5 2 8.4 4.8 11.8 1.9 2.3 2.1 5.2 2.3 8 .1 1.8-.6 2.8-2.5 3-5.8.5-10.3 3.4-13.5 8.2-1.5 2.3-3.5 3.8-6.3 4.4-4.7.9-9.3 2.4-14 3.2-10.2 1.9-17.9 6.8-21.8 16.7-.4.9-1 1.7-1.5 2.6-3.8 6.6-7.5 13.3-11.3 19.9-2.6 4.6-4.7 9.4-8.3 13.5-3.7 4.1-6.1 9.2-1.7 14.7 1.3 1.6.5 3.1-.3 4.6-3.8 7.5-7.4 15.2-11.5 22.7-2.5 4.7-3.9 9.5-3.3 14.8.3 3.3.2 6.6.8 9.8.3 1.8.2 2.2-1.5 2.7-2.2.6-4.3 1.6-6.2 2.9-1.4.9-1 2.4.4 3.3.8.5 1.8.8 2.7 1 4.4.7 4.5.7 4.7 5.1.2 5.6.2 11.3.5 16.9.5 9.1 1.4 18.2 1.6 27.3.1 6.2 1.3 12.1 2.8 18.1 2.3 9.7 7.8 16.7 16.5 21.4 1 .5 2.3 1.1 2.7 2 1.5 3.5 3.4 7 3.7 10.7.3 3.8 1 7.1 3.1 10.3.8 1.2 1 2.8 1.4 4.2 2.6 8.4 4.7 17 7.8 25.2 3.7 9.6 8 18.9 12.3 28.3 1.5 3.3 1.6 6.1.3 9.5-11.1 27.3-22.2 54.7-33.1 82.1-1.9 4.8-3.4 9.7-4.7 14.6-.9 3.5-1.6 7-4.7 9.6-1.5 1.3-.9 2.9 1 3.1 3.1.3 6.3.3 9.4.1 1.8-.1 2.5-1.6 1.6-3.2-.3-.6-.9-1-1.3-1.5-2.5-3.2-1.3-10 2-12.4 2.5-1.8 5.1-3.8 7.1-6.1 8.3-9.3 16.5-18.7 24.6-28.1 4.7-5.4 9.3-10.8 14.1-16.2 1.7-1.9 2.4-1.8 3.5.5 2.4 5.1 4.7 10.2 7.1 15.3 1 2.1 1.4 4.1.4 6.2-.9 1.9 0 3.2 1.5 4.2.8.6 1.8.9 2.6 1.4 1.5.9 1.8 2 .3 3.1-6.9 5.2-11.9 12.4-19.1 17.4-5.5 3.8-6.5 9.3-4 15.5.7 1.7 1.5 3.3 2.4 4.9 1 1.7.6 2.6-1.2 3.5-3.4 1.7-4.2 3.2-3.2 6.7.7 2.5 1.9 4.9 3.3 7.1 1.6 2.5 3.6 4.8 5.5 7.1.8 1 1.9 1.8 3 2.5 2.9 1.9 5.9 3.7 8.9 5.5 4.8 3 9.5 6.2 14.3 9.1 3.9 2.4 5.8 1.8 8.2-1.9.4-.6.7-1.1 1.1-1.7 2.4-3.6 5.5-5.6 10-5.1 3.1.3 6.3-.1 9.5 0 3.8 0 7.7.2 11.5 0 5.1-.3 10.2-1 14.7-4.1 4.8-3.3 5.9-6.1 3.3-11.3-1.6-3.2-1.9-6.2.1-9.4 1.8-2.8 2.3-5.8.9-9-.8-1.6-1.5-3.3-2.1-5-.4-1.2-1-2.9-.5-3.7 3.4-5.2 1.2-9.7-1.6-13.9-3.3-4.9-7.2-9.5-10.9-14.1-1.9-2.3-2.2-3 .2-4.2 3-1.6 3.4-3.8 2.4-6.6-1.2-3.7-.6-7.1 1.2-10.5 4.8-8.9 9.5-17.8 14.2-26.7 1.2-2.3 1.8-2.4 3.6-.5 3.8 4.2 7.3 8.6 11.2 12.7 4.7 5.1 8.8 10.8 14.5 15 2.9 2.2 3 3.9 1.5 7.4s-1.2 4.2 2.5 4.1c4.5-.1 5.7-.7 10.4 3.7.6.6 1.3 1.1 1.8 1.8 3.4 3.9 6.9 7.6 10.5 11.3 3 3.1 5.6 6.6 10 8.1.8.3 1.5 1.3 1.7 2.1.8 2.5 1.5 5.1 1.8 7.7.1 1.3-.5 2.9-1.2 4.1-1.9 3-1.8 4 1.6 4.6 2.2.4 4.6.1 6.8-.4 2.4-.6 2.5-1.4 1.2-3.5-1.4-2.2-2.9-4.4-3.8-6.9-1.6-4.5-2.4-9.3-4.2-13.7-4.8-11.3-10-22.4-15-33.6-10.4-23.2-20.6-46.4-31.1-69.5-1.7-3.7-1.9-6.7-.5-10.4 3.6-9.9 6.9-19.4 10-29zM512.3 240.7c-1.5 2.1-3.1 4.2-4.7 6.2-2 2.4-3.1 2.7-4.9 1.3-2.8-2.2-3.3-3.7-1.9-6.1 2.6-4.5 5.3-9 8.2-14 .9 4 .7 7.9 3.5 10.8.3.2.1 1.3-.2 1.8zm13.4 226.6c.3.1.7.7.8 1.1.1.8.2 1.8-.2 2.4-1.6 2.2-3.5 4.3-5.3 6.4-.2.2-9.7 12.5-10.2 12.7-.1-.5 8.2-13.5 8.4-13.8 1.5-2.9 3.6-5.6 5.2-8.4.1-.3.9-.5 1.3-.4zm-13.5 5.4l.9-2.7c.3-1 .7-2 1.1-2.9 1.5-3.8 3-7.7 4.6-11.5.2-.5.9-1.1 1.3-1.1.5 0 1 .6 1.4 1.1 1.1 1.6.4 3.2-.4 4.6-1.8 2.9-3.6 5.9-5.4 8.8l-5.4 8.7c.7-1.6 1.3-3.3 1.9-5zm-8.7 22.1c.5-.6 10-16.1 11.9-18.5l-.2.3c.1-.1.1-.2.2-.3l-6.2 10.6c-.2.7-4.4 7.9-4.7 8.7-.1.2-5.1 8.1-5.4 8-.5-.3 4.2-8.6 4.4-8.8zm26-7.3c-2.7 3.2-5.4 6.3-8.1 9.4-4 4.4-8 8.9-12.1 13.2-1.5 1.5-2.9 3.2-4.4 4.7-.2.2-1.3 1.6-1.5 1.8-2.1 2.1-18.2 20.8-18.5 20.4-.2-.3 12.3-23.1 12.6-23.1.3-.1 6.9.1 7.1-.1.7-.9-.2-2.2-.8-2.9-2.4-2.8-.9-5.2.5-7.7 3.9-7.2 10-12.7 15.2-19 2.1-2.5 4.3-5.1 6.5-7.5 1.5-1.6 2.6-1.5 3.3.4.7 1.8 1.2 3.8 1.9 5.6.7 2.1-.6 3.5-1.7 4.8zm44.9-52.4c-.3-.4-.6-.9-.9-1.3s-.6-.9-.8-1.3c-.1-.1.8-.9.9-.8.9.6 2.9.7 2.8 2.2 0 1.1-1.5.9-2 1.2zm4.1-8c-.2.4-.9.2-1.3.1-.1 0-.2-.3-.2-.5 0-.1 0-.2-.1-.2.2-.1.4-.1.6-.2s.4-.1.6-.1c.1-.1.6.4.4.9zm14.4-31.6c-2.8 6.7-5.7 13.4-8.4 20.1-1.1 2.7-2.6 3.8-5.6 4-3.9.2-6.9-1-9.6-4-7.6-8.5-13.6-17.8-15.6-29.3-.3-1.7-1.6-3.2-2.4-4.8-1.3-2.4-1.1-3.6 1.5-3.9 2.7-.3 4.3-1.7 5.6-3.6 1.6-2.3 3.7-3 6.4-2.9 4.1.2 8.3 0 12.4 0v-.1h12.9c5.2 0 7.3 2.9 7.4 8 .2 6.2-2.4 11.2-4.6 16.5zm53.4 97.6c-.4.2-2-1.5-2.3-1.8-2.3-2.4-4.7-4.7-6.9-7.2-4-4.4-8-8.9-12.1-13.3-3.1-3.5-3.3-4.1-1.1-8.3.8-1.6 1.8-3.2 2.8-4.7.2-.4.6-1.1 1.3-1 .9.1 1.1 1.3 1.5 2 3.9 7.5 7.7 15.1 11.5 22.6 1.5 3 3.1 5.9 4.5 8.9.1.3 1.3 2.5.8 2.8zm34.3 37.3l-3.7-3.6c-6.8-7.4-13.5-14.9-20.2-22.4-1.1-1.2-2.1-2.6-2.7-4.1-3.1-7.3-6.1-14.6-9-21.9-.5-1.3-3.1-6.6-3.7-8.1-.1-.2-.5-1.5-.5-1.5.1-1.9 5.2 7.2 5.9 8.3l25.8 39.3 7.5 11.1c.4.7 2.8 4.6.6 2.9zm-36.3-85.9c8.4 18.9 17.2 37.5 25.6 56.4.6 1.3 7.5 15.1 6.7 15.5-.6.2-8.3-12.9-9.1-14.1-9.2-14-18.4-28-27.4-42.1-2.2-3.5-4.1-7.2-6.1-10.8-1.9-3.6-2.1-7.2-.3-11 1-2.1 1.6-4.4 2.4-6.5.2-.6.5-1.7 1.4-1.7 1 0 1.3 1.2 1.6 1.9 1.8 4.2 3.4 8.3 5.2 12.4zm-1.5-208.2c1.3-4.1 1.2-8.1.4-12.2-.2-.8-.4-1.6-.3-2.4.1-.5.6-1.1 1-1.4.2-.1.8.3 1.2.7 1.3 1.2 2.6 2.4 3.8 3.8 1.5 1.7 3 3.5 4.3 5.4 1.7 2.4 3.2 5 5 7.4 1 1.4 1.3 2.6-.2 3.9-2.6 2.3-5 4.9-7.7 7.1-1.5 1.2-3.3 2.2-5.1 3-2.7 1.1-3.7.4-3.8-2.4 0-.5.1-1 .2-1.8-1.5-3.9.1-7.5 1.2-11.1zM444 499c-2.1-3-4.4-5.8-6-9.1-1.5-3.1-3.3-5.7-5.8-8-5.8-5.2-10.2-11.3-13.3-18.4-.7-1.6-1.4-3.5-1.2-5.1.1-.8 2.4-1.2 3.6-1.9.2-.1.4-.1.4-.2.7-1.1 2-2.2 1.8-3.2-.1-1-1.6-2.3-2.6-2.5-2.3-.3-4.6.1-6.9.2-1.1 0-2.6.5-3.3-.1-2.5-1.8-5.5-3.5-7-6.1-2.3-3.9-4.8-7.5-8.2-10.5-2.1-1.8-1.9-2.6.7-4 3.9-2 7.3-4.6 10.1-8 .8-1 2.1-1.6 3-2.5 1.9-2 4-4 5.6-6.2 1.7-2.5 1.4-3.5-.8-5.6-1.7-1.6-3.6-2.9-5.2-4.6-5.5-6-10.5-12.5-16.2-18.3-5.8-6-9.8-12.9-12.8-20.5-1.2-3.1-1.1-3.6 2.2-4.5 7-1.9 13.2-5.4 18.8-9.9 5.4-4.3 8.7-9.8 10.1-16.6 1.8-9 2.7-18 3-27.2.3-11.6.6-23.3 1-34.9.1-3.4.5-3.9 3.7-3.9 4 0 8.1.4 10.9-3.5.2-.2.6-.3.9-.4 3.3-1.1 6.6-2 9.9-3.2 4.4-1.5 4.6-2.4 4.6-7 0-3.2.8-6.5 1.3-9.7.2-1.3.5-2.6.4-3.9-.1-2-.4-3.9-.6-5.9-.2-3.4-1-6.5-3.1-9.3-.8-1-1.5-2.2-1.8-3.5-.8-3.9-1.7-7.8-2-11.7-.4-4.9-2.2-9-6.1-12-1.6-1.2-2.3-2.6-1.5-4.8.3-1 0-2.8-.7-3.5-2.7-2.7-3-5.7-2.1-9.2.6-2.3.9-4.6-1.8-6.1-.8-.4-1.4-1.5-1.5-2.4-1.8-8.6-5.9-16.2-9.6-23.9-1.2-2.5-2.9-4.4-5.3-5.7-2.3-1.3-4.9-2.3-6.9-4-3.7-3.1-8-4.5-12.5-5.8-3.3-1-6.5-2.5-9.7-3.8-2.1-.9-4.3-1.8-6.2-3.1-4.9-3.2-10.6-5.7-11.5-12.6-.1-1.1-1.2-2-1.6-3.1-.4-1-1.1-2.2-.9-3.2.7-4.2 1.3-8.5 2.5-12.6 1.1-3.5 2.7-6.8 2.3-10.6-.1-1.3 0-2.7 1.7-3.1 4.3-1.1 4.6-4.7 5.3-8.1.6-3.1 1.2-6.2 1.6-9.3.3-2.3.9-5 0-6.8-2.1-3.8-1.4-6.9.6-10.3 2.5-4.3 2.7-8.6 1-13.4-2.2-6.3-6.2-10.9-11.3-14.8-2.4-1.8-4.6-3.6-5.6-6.8-1.8-6.5-12.6-13.1-21.4-8.5-5.7 2.9-12.2 4.4-16.6 9.7-.5.6-1.5.7-2.2 1.1-6.8 3.7-12.5 8.6-15.2 15.9-2.3 6.2-4.1 12.7.1 19.1 1 1.6 1.3 3.8 2 5.6.7 1.7.6 3.1-1 4.4-2.1 1.6-2.5 3.8-1.6 6.3 1.6 4.5 3.3 9 4.9 13.5.8 2.3 2.1 4.1 4.5 5 .8.3 1.6 1.2 1.9 2 1.1 3.1 2 6.3 2.9 9.5 1.1 4.2.1 6.3-3.4 9.2-1.9 1.5-3.4 3.6-4.6 5.7-4.3 7-4.2 7.1-12.3 8.3-.3 0-.7 0-1 .1-9.2 2.3-18.7 2.5-27.9 4.8-9.6 2.4-16.3 8.2-21.1 16.2-6.6 10.8-12.5 21.8-13.8 34.6-.1 1.3-.7 2.6-1.3 3.7-.5.9-1.4 1.9-2.3 2.4-5.5 3-5.9 3.8-3.8 9.6.3.8.9 1.5 1 2.3.2 1.4.5 3.1-.1 4.2-3.4 6.6-7 13.1-10.7 19.6-1.2 2.2-2.9 4.2-2.3 6.9.6 2.5-.2 4.5-1.3 6.6-.9 1.8-1.6 3.7-2.3 5.5-3.6 9.2-4.2 18.2.8 27.3 1.6 2.9.5 4.2-3.1 3.9-6.4-.5-12.9-1.2-19.3-1.8-1.8-.2-3.6-.3-5.5-.3s-3.1.9-3.5 2.9c-.3 1.3-.6 2.6-.8 3.9-.5 5.5-.8 10.9-1.5 16.4-2.1 16.9-2.3 33.8-1.8 50.7.1 2.8.4 5.7 1.3 8.3 2.2 6.6 6.9 11.2 12.9 14.6 8 4.5 16.8 6.3 25.7 7.4 12.8 1.6 25.8 2.8 38.8 2.3 1.3 0 2.7-.2 4 .2.9.3 2.3 1.2 2.4 2.1.5 3.2 1.1 6.3-.7 9.6-4.1 7.4-7.8 15-11.6 22.5l-62.7 121.2c-3.3 6.3-6.1 12.9-9 19.4-1.2 2.7-2.1 5.6-3.5 8.2-.8 1.9-1.8 3.7-2.8 5.6 2.3.2 4.6.4 6.8.5h.5c2.3-.2 2.9-.9 2.4-2.7l-.3-.9c-2.1-4.9-.4-9.9 4.1-12.7 2.5-1.6 5-3.4 7.1-5.4 5.8-5.3 11.4-10.7 17-16.1 6.4-6.1 12.7-12.2 19.1-18.3.6-.5 1.4-.7 2.1-1.1.1.9.6 2.1.2 2.7-1 1.9-2.5 3.5-3.6 5.3-1.1 1.8-.7 2.9 1.4 3.1 2.3.2 4.7.2 7 .1 2-.1 2.6-1.1 1.9-3-.2-.6-.7-1.1-1-1.7-1.4-3.1-1-3.8 1.5-5.8 2.3-1.8 4.7-3.7 6.7-5.9 9.3-10.6 18.5-21.4 27.6-32.1 4.3-5 8.6-10.1 12.9-15.2 2.9-3.3 3.5-3.2 5 1.1 1.1 3.1 2 6.3 2.8 9.5 3.6 13.9 7.9 27.7 13.4 41 1.6 3.8 2.7 7.8 4.2 11.7 1 2.8 2.1 5.6 3.2 8.4 1.1 2.7 3 3.7 5.9 3.3 4.3-.5 8.6-.8 12.9-1.2 3.1-.3 4.1.7 3.4 3.7-1 3.8-1.5 7.4-.3 11.3.2.7-.4 1.6-.5 2.4-.7 4.6-1.6 9.1-2 13.7-.5 6.3-.8 12.6-.9 18.9-.1 3-1.1 5.4-2.5 7.9-1 1.9-1.8 4-1.9 6.1-.5 6.6-.7 13.3-.9 19.9-.1 4.1.5 4.7 4.5 5.9 1.1.3 2.2.8 3.4.9 6.6.4 13.3.7 21.7 1.2 2.4-.2 6.5-.8 10.6-1s7.8-1.6 11.2-3.6c7.3-4.3 9.1-8.8 7.6-17.1-.4-2-.2-4.3.2-6.3 1-4.8 1.7-9.4.3-14.3-.4-1.4-.5-3.1-.1-4.4 1.9-6.1.8-12.3-.3-18.2-1.2-6.3-3.4-12.6-8.7-16.9-3-2.4-4.3-5.8-6.3-8.8-.2-.3 0-.9 0-1.3.4.2 1 .2 1.3.5 2.5 2.9 4.8 5.9 7.3 8.8 2.5 2.9 4.7 6.1 7.8 8.3 2.2 1.6 3.7 3.2 4.1 5.7.4 2.6 1 5.1-.9 7.6s-.6 4.7 2.6 5c1.3.1 2.7.2 3.9-.1 1.4-.3 3.3-.7 3.7-1.6.5-1 0-3-.9-4-2.7-3.1-3.3-6.7-3.9-10.5-.4-2.3-.9-4.6-1.7-6.7-3.7-10.3-7.5-20.5-11.1-30.8-.4-1.2-2-2.7-.2-3.9.2-.2 1.9 1.8 2.9 2.8.3.3.5.9.6 1.3 2 5.8 4 11.6 5.9 17.4 2.3 7.2 9.1 10.2 15.9 7 6-2.8 12.1-5.5 17.9-8.7 6.6-3.5 13-7.4 19.3-11.4 4.1-2.6 4.2-4.2 1.4-8.1-.5-.7-1.2-1.4-1.8-2.2zm-48.5-270.7c.2-.2 1.1-.3 1.6 0l.1.1c1.2 1.3 2.8 3 2.6 4.9-.1.9-1 1.5-1.6 1.8-3 1.2-6.1 2.3-9.3 3.3-.1 0-.2-.1-.4-.3-.1-.1-.2-.3-.3-.4-.1-.1-.2-.3-.2-.3v-.1c2.4-3.1 4.9-6.1 7.5-9zM273.6 404.9c.1-.5.7-1 1.3-1.3.1-.1.8.5 1 .8 1.2 1.5 3.5 4.3 2.5 6.7-.2.5-.9.6-1.2.5-1.6-.7-4-4.8-3.6-6.7zm.3 9.8l5.4 5.5c1.3 1.4 3.3 3.9 1.3 5.6-1.2 1.1-4.1.7-6 .2-2.3-.5-2.7-2.7-2.6-4.9.6-2 1.3-4.2 1.9-6.4zm-13.1-25c.8-1.6 1.9-2.9 3-4.3.9 1.2 2 2.4 2.8 3.7 1 1.5 2 3.1 2.6 4.7.5 1.3.5 2.8.5 4.3 0 .6 0 1.5-.9 1.4s-1.9-1.1-2.4-1.7c-1.7-1.8-3.4-3.6-4.9-5.5-.6-.7-1-2-.7-2.6zm8.7 25.8c-.2 1.2-.3 2-.6 2.8-.2.6-.6 1.6-1.2 1.6-.8-.1-1-1.4-1-2.1-.1-.8.3-1.6.6-2.3.2-.5.5-1.4 1.1-1.4.7-.1 1.2.6 1.1 1.4zm-5.3-7.2c-.9-2.8-1.8-5.6-2.6-8.4-.1-.2.4-.8.7-.8 2.3-.7 4.2 3.5 4.2 6.6 0 .9-.1 1.8-.6 2.4-.3.3-1.7.3-1.7.2zm-.6 20l.9-2.7c.3-.1.8.1.8.4.3.8-2.1 3.6-1.7 2.3zm-68.4 88.4c1.7-3.4 3.5-6.8 5.2-10.2l31.8-61.5c7.5-14.6 15-29.2 22.6-43.8.4-.7.8-1.8 1.5-1.8.8 0 1.3 1.1 1.5 1.7 1.5 4.7 3 9.5 4.4 14.2.1.5.1 1 .2 1.6-1.3 3.7-2.7 7.4-4 11.1-3.7 10.4-9 19.8-15.9 28.5-10.3 13-19.9 26.6-29.9 39.9-5.3 7-10.7 14-16.1 20.9-.3.4-5.1 7.3-5.6 7-.3-.2 4.1-7.2 4.3-7.6zm39.8-28.6c-1.2 2.6-3.1 5.1-5.1 7.2-10.7 10.6-21.6 21.1-32.5 31.6-2.4 2.2-4.9 5.1-7.5 7.1 0 0-1.6 1.7-2.2 1.2-.7-.6 3.2-5.2 4.2-6.4 16.7-21.8 33.5-43.6 50.4-65.4.6-.8 1.2-1.6 1.8-2.3.2-.2 2.9-3.7 3.3-3.6.2 0-1.8 4.1-1.8 4.4-.1.6-.4 1.3-.6 1.9-3.3 8.1-6.5 16.3-10 24.3zm17.6-7.3c-4.1 4.7-8.3 9.3-12.5 13.9-.6.7-1.7 1.9-2.6 1.8-.2 0-.4-.3-.5-.5-.5-2.3 1.3-4 2.8-5.5 4.1-4 8.3-7.9 12.5-11.8l5.4-4.7c1-.3-4.5 6.1-5.1 6.8zm30.8-36.5c-5.9 5.4-11.5 11-17.2 16.5-6.7 6.4-13.4 12.8-20.2 19.2-.7.7-1.5 1.3-2.3 1.9-.2.1-.7.1-.8-.1-.2-.2-.4-.6-.3-.8.2-.8.5-1.6.9-2.3 7-14.4 14.1-28.8 21-43.3 1.2-2.5 2.9-3.9 5.9-3.5 1.5.2 3 0 4.5 0h3.5c2.4 0 5-.6 6 2.8.9 3.4 2.3 6.5-1 9.6zM378 490c.2.1.3.4.5.8 0 .1.1.4.2.6.1.3 1.1 3 1 2.9-.3-.3-2.1-3.7-2.1-4.1.1-.2.3-.3.4-.2zm-7.5-21.8v.1c1.7.3 2.8 1.2 3 3 0 .2-.7.8-.9.7-1.6-.7-2.3-2-2.1-3.7-.1 0-.1 0 0-.1-.2 0-.3-.1-.4-.2.1.1.2.1.4.2zm-7.7-19.8c.7 0 1.9 0 2.1.4 1.3 2.3 2.6 4.6 3.4 7.1.7 2.2.8 4.5 1.2 7.1-.2.4-.5.9-.8 1.4-.5-.4-1.1-.7-1.3-1.2-1.7-4.5-3.3-9-4.9-13.5-.1-.5.2-1.3.3-1.3zm20.5 75.6c1.6 3.3 2.9 6.6 4.3 10 .2.5 0 1.2-.1 1.8-.6-.2-1.3-.2-1.7-.6-1.7-1.8-3.3-3.7-4.8-5.6-4.7-5.9-9.5-11.9-14.1-17.9-2.3-3-2.3-3.1.8-5.4 1.3-1 2.6-1.9 4.3-3.1.8 1 1.7 1.8 2.1 2.7 3.2 6 6.3 12 9.2 18.1z" fill="#a3bbc9"/>
</svg>