<?xml version="1.0" standalone="no"?>
<!DOCTYPE svg PUBLIC "-//W3C//DTD SVG 20010904//EN"
 "http://www.w3.org/TR/2001/REC-SVG-20010904/DTD/svg10.dtd">
<svg version="1.0" xmlns="http://www.w3.org/2000/svg"
 width="1024.000000pt" height="1024.000000pt" viewBox="0 0 1024.000000 1024.000000"
 preserveAspectRatio="xMidYMid meet">
<metadata>
Created by potrace 1.11, written by Peter Selinger 2001-2013
</metadata>
<g transform="translate(0.000000,1024.000000) scale(0.100000,-0.100000)"
fill="#000000" stroke="none">
<path d="M6482 9402 c-149 -53 -228 -240 -164 -384 27 -63 100 -132 159 -152
137 -47 272 8 341 139 22 42 27 63 27 130 0 70 -4 87 -30 133 -68 125 -205
179 -333 134z"/>
<path d="M6461 8404 c-80 -21 -144 -60 -205 -124 -61 -64 -90 -114 -111 -197
-41 -157 9 -320 133 -433 260 -239 675 -89 734 265 50 303 -250 570 -551 489z"/>
<path d="M6450 7066 c-84 -23 -145 -60 -212 -127 -193 -191 -195 -484 -4 -675
192 -192 483 -193 678 -3 228 223 169 621 -112 764 -105 53 -247 70 -350 41z"/>
<path d="M1870 7023 c-573 -100 -940 -625 -1056 -1513 -22 -171 -30 -654 -14
-858 47 -613 208 -1082 466 -1361 127 -137 291 -238 459 -283 111 -29 363 -32
480 -4 417 96 711 429 861 975 89 325 118 579 119 1051 0 366 -7 483 -46 715
-122 730 -435 1169 -902 1266 -87 18 -295 25 -367 12z m265 -574 c188 -88 311
-377 372 -869 22 -182 26 -894 5 -1080 -72 -659 -234 -963 -512 -964 -66 -1
-85 4 -142 32 -246 121 -386 541 -406 1225 -30 968 132 1569 451 1673 61 20
171 12 232 -17z"/>
<path d="M3550 6710 l0 -280 590 0 c325 0 590 -2 590 -5 0 -3 -290 -683 -645
-1511 l-645 -1506 0 -189 0 -189 1000 0 1000 0 0 275 0 275 -626 0 c-592 0
-626 1 -621 18 2 9 284 671 626 1470 l621 1454 0 234 0 234 -945 0 -945 0 0
-280z"/>
<path d="M7750 5010 l0 -1980 850 0 850 0 0 275 0 275 -530 0 -530 0 0 625 0
625 465 0 465 0 0 265 0 265 -465 0 -465 0 0 535 0 535 495 0 495 0 0 280 0
280 -815 0 -815 0 0 -1980z"/>
<path d="M6449 5659 c-165 -39 -304 -150 -379 -303 -107 -218 -65 -461 110
-636 86 -87 147 -122 256 -150 185 -47 376 1 517 131 161 147 221 378 153 582
-62 185 -208 324 -392 372 -62 16 -205 19 -265 4z"/>
<path d="M6510 4099 c-198 -25 -358 -173 -406 -375 -49 -210 62 -438 262 -534
236 -114 523 -14 638 222 169 345 -111 735 -494 687z"/>
<path d="M6430 2670 c-254 -92 -371 -378 -252 -615 37 -74 70 -114 136 -162
127 -94 303 -110 447 -41 356 170 333 680 -37 814 -85 31 -213 33 -294 4z"/>
<path d="M6487 1366 c-221 -82 -260 -364 -68 -494 191 -130 451 26 428 256
-10 95 -68 179 -154 222 -57 28 -153 36 -206 16z"/>
</g>
</svg>
