<?xml version="1.0" standalone="no"?>
<!DOCTYPE svg PUBLIC "-//W3C//DTD SVG 20010904//EN"
 "http://www.w3.org/TR/2001/REC-SVG-20010904/DTD/svg10.dtd">
<svg version="1.0" xmlns="http://www.w3.org/2000/svg"
 width="260.000000pt" height="260.000000pt" viewBox="0 0 260.000000 260.000000"
 preserveAspectRatio="xMidYMid meet">
<metadata>
Created by potrace 1.11, written by Peter Selinger 2001-2013
</metadata>
<g transform="translate(0.000000,260.000000) scale(0.100000,-0.100000)"
fill="#000000" stroke="none">
<path d="M1225 2509 c-27 -3 -68 -9 -90 -12 -63 -9 -244 -71 -310 -107 -280
-151 -497 -405 -594 -697 -17 -49 -33 -107 -37 -129 -3 -21 -10 -59 -15 -84
-9 -49 -5 -333 6 -390 51 -271 148 -463 332 -655 167 -177 400 -299 648 -342
53 -9 317 -11 374 -2 93 13 102 15 187 39 164 45 320 136 445 260 113 112 240
295 244 352 1 10 -7 27 -17 38 -18 19 -31 20 -249 20 -241 0 -269 -4 -301 -48
-36 -49 -147 -124 -229 -155 -344 -130 -732 24 -890 353 -60 124 -81 219 -80
365 0 310 201 595 485 690 251 84 517 28 694 -145 96 -95 76 -90 342 -88 255
1 259 2 260 58 0 28 -56 128 -124 225 -108 150 -284 297 -431 360 -63 27 -177
65 -210 71 -16 2 -57 9 -90 15 -72 13 -280 18 -350 8z"/>
</g>
</svg>
