<svg version="1.1" id="Ebene_1" xmlns="http://www.w3.org/2000/svg" x="0" y="0" viewBox="0 0 272 50" xml:space="preserve">
  <style>
    .st0{fill:#343a40}
  </style>
  <path class="st0" d="M18.8 41.9c2.9 0 5.2-1 7-2.6l4.7 4.8c-3.1 3.1-7.4 4.9-12.2 4.9C8.4 49 1 41.2 1 31.8c0-9.5 7.4-17.2 17.3-17.2 4.9 0 9.1 1.9 12.2 4.9l-4.7 4.8c-1.8-1.6-4.1-2.6-7-2.6-6.2 0-10.3 4.8-10.3 10.1s4.1 10.1 10.3 10.1M63.9 31.8c0 5.3-4.1 10.1-9.8 10.1-5.7 0-9.8-4.8-9.8-10.1s4.1-10.1 9.8-10.1c5.7 0 9.8 4.8 9.8 10.1m7.6 0c0-9.5-7.4-17.2-17.3-17.2s-17.3 7.7-17.3 17.2S44.3 49 54.2 49c9.8 0 17.3-7.8 17.3-17.2M156.1 48.1h-9.6l-11.1-12.4-3.5 3.7v8.7h-7.7V15.7h7.7v13.6L145 15.7h9.6l-14.2 14.9 15.7 17.5zM183.9 31.8c0 5.3-4.1 10.1-9.8 10.1-5.7 0-9.8-4.8-9.8-10.1s4.1-10.1 9.8-10.1c5.8 0 9.8 4.8 9.8 10.1m7.6 0c0-9.5-7.4-17.2-17.3-17.2s-17.3 7.7-17.3 17.2S164.3 49 174.2 49c9.8 0 17.3-7.8 17.3-17.2M114.6 15.7v32.4H107V29l-7.3 12.2h-5l-7.6-12.6v19.5h-7.8V15.7h8.5l9.4 16.5 10.1-16.5h7.3zM233.5 15.7v32.4H226V29l-7.3 12.2h-5l-7.6-12.6v19.5h-7.8V15.7h8.5l9.4 16.5 10.1-16.5h7.2zM256.6 21.3c-7.2 0-12.9-5.1-13.3-11.8-.7 1.7-1.1 3.5-1.1 5.5 0 8 6.5 14.1 14.5 14.1S271.1 23 271.1 15c0-2-.4-3.8-1.1-5.5-.5 6.6-6.2 11.8-13.4 11.8m6.5-7.6c1.2-1.4 1.9-3.2 1.9-5 0-4.3-3.8-7.7-8.5-7.7S248 4.4 248 8.7c0 1.9.7 3.6 1.9 5 .6-3 3.5-5 6.6-5 3.1 0 6 2 6.6 5"/>
</svg>